<svg width="34" height="31" viewBox="0 0 34 31" fill="none" xmlns="http://www.w3.org/2000/svg">
<g opacity="0.6">
<path d="M28.015 29.8593L28.0151 29.8586C28.01 27.9291 27.8825 26.7141 27.6936 25.8562C27.5047 24.9983 27.2545 24.4979 27.0045 23.9978L27.0045 23.9978C26.8121 23.6131 26.4956 23.1128 26.1983 22.6924C26.0497 22.4821 25.9059 22.2917 25.7847 22.1456C25.7241 22.0726 25.6692 22.0106 25.6222 21.9626C25.5752 21.9148 25.5358 21.8807 25.5063 21.8639C25.3923 21.7987 25.2462 21.628 25.1431 21.4185C25.04 21.2091 24.9806 20.9621 25.0383 20.7446C25.1541 20.3086 25.5488 20.005 26 20.005C30.4155 20.005 33.995 23.5845 33.995 28V30C33.995 30.5495 33.5495 30.995 33 30.995H29C28.7116 30.995 28.4373 30.8698 28.2483 30.6519C28.0593 30.434 27.9742 30.1448 28.015 29.8593Z" stroke="#33D1DA" stroke-width="0.01" stroke-linecap="round" stroke-linejoin="round"/>
<path d="M33 30V28C33 24.134 29.866 21 26 21V21" stroke="white" stroke-width="2" stroke-linecap="round" stroke-linejoin="round"/>
<circle cx="27.5" cy="11.5" r="3.5" stroke="white" stroke-width="2"/>
<circle cx="13" cy="8" r="7" stroke="white" stroke-width="2"/>
<path d="M1 30V28C1 24.134 4.13401 21 8 21H18C21.866 21 25 24.134 25 28V30" stroke="white" stroke-width="2" stroke-linecap="round"/>
</g>
</svg>
