<svg width="34" height="31" viewBox="0 0 34 31" fill="none" xmlns="http://www.w3.org/2000/svg">
<g opacity="0.6">
<mask id="path-1-inside-1" fill="white">
<path fill-rule="evenodd" clip-rule="evenodd" d="M8 20C3.58172 20 0 23.5817 0 28V31H26V28C26 23.5817 22.4183 20 18 20H8ZM26 20C25.5466 20 25.1499 20.3051 25.0335 20.7433C24.9171 21.1816 25.1102 21.6433 25.5039 21.8682C26.2107 22.2722 28.271 24.5317 27.51 29.8586C27.4691 30.1456 27.5546 30.4362 27.7445 30.6552C27.9345 30.8742 28.2101 31 28.5 31H33C33.5523 31 34 30.5523 34 30V28C34 23.5817 30.4183 20 26 20Z"/>
</mask>
<path d="M25.0335 20.7433L25.0432 20.7459V20.7459L25.0335 20.7433ZM25.5039 21.8682L25.4989 21.8769V21.8769L25.5039 21.8682ZM27.51 29.8586L27.5002 29.8572L27.51 29.8586ZM0.01 28C0.01 23.5872 3.58725 20.01 8 20.01V19.99C3.5762 19.99 -0.01 23.5762 -0.01 28H0.01ZM0.01 31V28H-0.01V31H0.01ZM26 30.99H0V31.01H26V30.99ZM25.99 28V31H26.01V28H25.99ZM18 20.01C22.4128 20.01 25.99 23.5872 25.99 28H26.01C26.01 23.5762 22.4238 19.99 18 19.99V20.01ZM8 20.01H18V19.99H8V20.01ZM25.0432 20.7459C25.1584 20.312 25.5511 20.01 26 20.01V19.99C25.542 19.99 25.1414 20.2981 25.0238 20.7408L25.0432 20.7459ZM25.5088 21.8596C25.1191 21.6368 24.9279 21.1798 25.0432 20.7459L25.0238 20.7408C24.9063 21.1834 25.1013 21.6497 25.4989 21.8769L25.5088 21.8596ZM27.5199 29.86C28.2813 24.5303 26.2202 22.2661 25.5088 21.8596L25.4989 21.8769C26.2012 22.2782 28.2607 24.533 27.5002 29.8572L27.5199 29.86ZM27.7521 30.6487C27.5641 30.4318 27.4794 30.1441 27.5199 29.86L27.5002 29.8572C27.4587 30.147 27.5452 30.4406 27.737 30.6618L27.7521 30.6487ZM28.5 30.99C28.213 30.99 27.9401 30.8655 27.7521 30.6487L27.737 30.6618C27.9288 30.8829 28.2072 31.01 28.5 31.01V30.99ZM33 30.99H28.5V31.01H33V30.99ZM33.99 30C33.99 30.5468 33.5468 30.99 33 30.99V31.01C33.5578 31.01 34.01 30.5578 34.01 30H33.99ZM33.99 28V30H34.01V28H33.99ZM26 20.01C30.4128 20.01 33.99 23.5872 33.99 28H34.01C34.01 23.5762 30.4238 19.99 26 19.99V20.01Z" fill="#33D1DA" mask="url(#path-1-inside-1)"/>
<path d="M33 30V28C33 24.134 29.866 21 26 21V21" stroke="white" stroke-width="2" stroke-linecap="round" stroke-linejoin="round"/>
<circle cx="27.5" cy="11.5" r="3.5" stroke="white" stroke-width="2"/>
<circle cx="13" cy="8" r="7" stroke="white" stroke-width="2"/>
<path d="M1 30V28C1 24.134 4.13401 21 8 21H18C21.866 21 25 24.134 25 28V30" stroke="white" stroke-width="2" stroke-linecap="round"/>
</g>
</svg>
