<svg width="34" height="34" viewBox="0 0 34 34" fill="none" xmlns="http://www.w3.org/2000/svg">
<path d="M15.6664 2.19321L1.9266 14.4867C0.555288 15.7137 1.42877 17.9852 3.26885 17.9772L3.99567 17.974C4.54964 17.9716 5 18.4201 5 18.974V31C5 32.1046 5.89543 33 7 33H12.0303C12.5659 33 13 32.5659 13 32.0303V26.3333C13 24.1242 14.7909 22.3333 17 22.3333C19.2091 22.3333 21 24.1242 21 26.3333V32.0303C21 32.5659 21.4341 33 21.9697 33H27C28.1046 33 29 32.1046 29 31V18.974C29 18.4201 29.4504 17.9716 30.0043 17.974L30.7312 17.9772C32.5712 17.9852 33.4447 15.7137 32.0734 14.4867L18.3336 2.19321C17.5743 1.51386 16.4257 1.51385 15.6664 2.19321Z" stroke="black" stroke-width="2" stroke-linecap="round"/>
</svg>
