<svg width="42" height="38" viewBox="0 0 42 38" fill="none" xmlns="http://www.w3.org/2000/svg">
<g opacity="0.6">
<path d="M31.0711 7.99671C28.6527 6.89747 25.9956 7.89065 24.7361 9.92233C23.4295 5.90191 19.6558 2.995 15.1973 2.995H11.4737C10.3756 1.76861 8.7799 0.995 7 0.995C3.68353 0.995 0.995 3.68353 0.995 7C0.995 9.66162 2.72663 11.9188 5.12475 12.7064C5.04038 13.1198 4.995 13.5513 4.995 14C4.995 14.9628 5.20324 15.8455 5.55748 16.6404C2.8122 18.4181 0.995 21.5065 0.995 25.0234C0.995 30.5361 5.46393 35.005 10.9766 35.005H23.5263C24.6244 36.2314 26.2201 37.005 28 37.005C31.3165 37.005 34.005 34.3165 34.005 31C34.005 29.2201 33.2314 27.6244 32.005 26.5263V22.8053L38.0673 20.6008C42.2806 19.0687 42.5093 13.1959 38.428 11.3408L31.0711 7.99671Z" stroke="#33D1DA" stroke-width="0.01"/>
<path fill-rule="evenodd" clip-rule="evenodd" d="M8 7C8 7.55228 7.55228 8 7 8C6.44772 8 6 7.55228 6 7C6 6.44772 6.44772 6 7 6C7.55228 6 8 6.44772 8 7ZM9.82929 8C9.41746 9.16519 8.30622 10 7 10C5.34315 10 4 8.65685 4 7C4 5.34315 5.34315 4 7 4C8.30622 4 9.41746 4.83481 9.82929 6H15.1973C19.0762 6 22.2207 9.14447 22.2207 13.0234C22.2207 16.9023 19.0762 20.0468 15.1973 20.0468H10.9766C8.22811 20.0468 6 22.2749 6 25.0234C6 27.7719 8.22811 30 10.9766 30H25.1707C25.472 29.1476 26.1476 28.472 27 28.1707V18.5724V17V12.5531C27 11.0985 28.5034 10.1305 29.8276 10.7324L37.1845 14.0764C38.8154 14.8177 38.724 17.1645 37.0404 17.7767L29.6835 20.452C29.4554 20.5349 29.2249 20.5738 29 20.5741V28.1707C30.1652 28.5825 31 29.6938 31 31C31 32.6569 29.6569 34 28 34C26.6938 34 25.5825 33.1652 25.1707 32H10.9766C7.12354 32 4 28.8765 4 25.0234C4 21.1703 7.12354 18.0468 10.9766 18.0468H15.1973C17.9716 18.0468 20.2207 15.7977 20.2207 13.0234C20.2207 10.249 17.9716 8 15.1973 8H9.82929ZM28 30C27.4477 30 27 30.4477 27 31C27 31.5523 27.4477 32 28 32C28.5523 32 29 31.5523 29 31C29 30.4477 28.5523 30 28 30Z" fill="white"/>
</g>
</svg>
