<svg width="34" height="32" viewBox="0 0 34 32" fill="none" xmlns="http://www.w3.org/2000/svg">
<g opacity="0.6">
<path d="M2.54713 27.625C2.60381 27.4045 2.50444 27.1736 2.30537 27.0632C1.22766 26.4656 0.5 25.3174 0.5 24V4C0.5 2.067 2.067 0.5 4 0.5H30C31.933 0.5 33.5 2.067 33.5 4V24C33.5 25.3174 32.7723 26.4656 31.6946 27.0632C31.4956 27.1736 31.3962 27.4045 31.4529 27.625C31.4835 27.7443 31.5 27.8699 31.5 28V30C31.5 30.8284 30.8284 31.5 30 31.5H26.7511C26.1993 31.5 25.6921 31.197 25.4304 30.7112L24.3535 28.7112C24.2709 28.5576 24.1445 28.3213 24.0385 28.1228L23.9033 27.8694L23.8624 27.7929L23.8514 27.7721L23.8485 27.7667L23.8477 27.7653L23.8476 27.765L23.8475 27.7649L23.8475 27.7649L23.4062 28L23.8475 27.7648C23.7606 27.6018 23.591 27.5 23.4062 27.5H10.6016C10.4185 27.5 10.2502 27.6 10.1626 27.7607L10.6016 28L10.1626 27.7607L10.1625 27.7607L10.1625 27.7608L10.1623 27.7612L10.1615 27.7625L10.1586 27.768L10.1472 27.7888L10.1054 27.8656L9.96724 28.1194C9.85933 28.3179 9.73016 28.5558 9.64649 28.7112L8.56957 30.7112C8.30795 31.197 7.80068 31.5 7.24886 31.5H4C3.17157 31.5 2.5 30.8284 2.5 30V28C2.5 27.8699 2.51645 27.7443 2.54713 27.625Z" stroke="white" stroke-linejoin="round"/>
<path fill-rule="evenodd" clip-rule="evenodd" d="M0 4C0 1.79086 1.79086 0 4 0H30C32.2091 0 34 1.79086 34 4V24C34 25.4881 33.1874 26.7864 31.9817 27.4754C31.9937 27.5373 32 27.6012 32 27.6667V30C32 31.1046 31.1046 32 30 32H26.7511C26.0154 32 25.339 31.596 24.9902 30.9482L23.4027 28H10.5973L9.0098 30.9482C8.66098 31.596 7.98463 32 7.24886 32H4C2.89543 32 2 31.1046 2 30V27.6667C2 27.6012 2.00629 27.5373 2.01828 27.4754C0.812604 26.7864 0 25.4881 0 24V4ZM25.6742 28H30V30H26.7511L25.6742 28ZM30 26H24.0188C24.0057 25.9997 23.9926 25.9997 23.9795 26H10.0205C10.0074 25.9997 9.9943 25.9997 9.98121 26H4C2.89543 26 2 25.1046 2 24V4C2 2.89543 2.89543 2 4 2H30C31.1046 2 32 2.89543 32 4V24C32 25.1046 31.1046 26 30 26ZM4 28H8.32578L7.24886 30H4V28ZM7 6H27C27.5523 6 28 6.44772 28 7V21C28 21.5523 27.5523 22 27 22H7C6.44772 22 6 21.5523 6 21V7C6 6.44772 6.44771 6 7 6ZM4 7C4 5.34315 5.34315 4 7 4H27C28.6569 4 30 5.34315 30 7V21C30 22.6569 28.6569 24 27 24H7C5.34315 24 4 22.6569 4 21V7ZM11 15C11.5523 15 12 14.5523 12 14C12 13.4477 11.5523 13 11 13C10.4477 13 10 13.4477 10 14C10 14.5523 10.4477 15 11 15ZM11 17C12.6569 17 14 15.6569 14 14C14 12.3431 12.6569 11 11 11C9.34315 11 8 12.3431 8 14C8 15.6569 9.34315 17 11 17ZM17 11C17.5523 11 18 10.5523 18 10C18 9.44771 17.5523 9 17 9C16.4477 9 16 9.44771 16 10C16 10.5523 16.4477 11 17 11ZM18 14C18 14.5523 17.5523 15 17 15C16.4477 15 16 14.5523 16 14C16 13.4477 16.4477 13 17 13C17.5523 13 18 13.4477 18 14ZM17 19C17.5523 19 18 18.5523 18 18C18 17.4477 17.5523 17 17 17C16.4477 17 16 17.4477 16 18C16 18.5523 16.4477 19 17 19ZM22 10C22 10.5523 21.5523 11 21 11C20.4477 11 20 10.5523 20 10C20 9.44771 20.4477 9 21 9C21.5523 9 22 9.44771 22 10ZM21 15C21.5523 15 22 14.5523 22 14C22 13.4477 21.5523 13 21 13C20.4477 13 20 13.4477 20 14C20 14.5523 20.4477 15 21 15ZM22 18C22 18.5523 21.5523 19 21 19C20.4477 19 20 18.5523 20 18C20 17.4477 20.4477 17 21 17C21.5523 17 22 17.4477 22 18ZM25 11C25.5523 11 26 10.5523 26 10C26 9.44771 25.5523 9 25 9C24.4477 9 24 9.44771 24 10C24 10.5523 24.4477 11 25 11ZM26 14C26 14.5523 25.5523 15 25 15C24.4477 15 24 14.5523 24 14C24 13.4477 24.4477 13 25 13C25.5523 13 26 13.4477 26 14ZM25 19C25.5523 19 26 18.5523 26 18C26 17.4477 25.5523 17 25 17C24.4477 17 24 17.4477 24 18C24 18.5523 24.4477 19 25 19Z" fill="white"/>
</g>
</svg>
