<svg width="34" height="36" viewBox="0 0 34 36" fill="none" xmlns="http://www.w3.org/2000/svg">
<path d="M23.0909 13.2956C20.651 10.4357 11.0423 10.8584 10.0781 14.2489C9.26484 17.109 14.9582 17.7218 19.8377 18.539C24.7172 19.3561 25.3681 23.115 21.4643 24.259C16.5845 25.689 11.7047 24.2591 10.0781 22.3524" stroke="black" stroke-width="2" stroke-linecap="round"/>
<path d="M17 9V27" stroke="black" stroke-width="2" stroke-linecap="round"/>
<path d="M17 5V2" stroke="black" stroke-width="2" stroke-linecap="round"/>
<path d="M17 1L19 2.5" stroke="black" stroke-width="2" stroke-linecap="round"/>
<path d="M17 1L15 2.5" stroke="black" stroke-width="2" stroke-linecap="round"/>
<path d="M5 18H2" stroke="black" stroke-width="2" stroke-linecap="round"/>
<path d="M1 18L2.5 16" stroke="black" stroke-width="2" stroke-linecap="round"/>
<path d="M1 18L2.5 20" stroke="black" stroke-width="2" stroke-linecap="round"/>
<path d="M29 18H32" stroke="black" stroke-width="2" stroke-linecap="round"/>
<path d="M33 18L31.5 16" stroke="black" stroke-width="2" stroke-linecap="round"/>
<path d="M33 18L31.5 20" stroke="black" stroke-width="2" stroke-linecap="round"/>
<path d="M17 31V34" stroke="black" stroke-width="2" stroke-linecap="round"/>
<path d="M17 35L19 33.5" stroke="black" stroke-width="2" stroke-linecap="round"/>
<path d="M17 35L15 33.5" stroke="black" stroke-width="2" stroke-linecap="round"/>
</svg>
