<svg width="43" height="47" viewBox="0 0 43 47" fill="none" xmlns="http://www.w3.org/2000/svg">
<g opacity="0.6">
<path d="M30.2737 30.2349C30.4072 30.0572 30.5302 29.8734 30.6424 29.6843C30.8289 30.2761 31.1567 30.8329 31.6256 31.3021C33.1831 32.8602 35.7084 32.8602 37.266 31.3021L40.5451 28.0219C42.4916 26.0748 42.4916 22.9178 40.5452 20.9706L37.266 17.6901C35.7085 16.132 33.1833 16.1319 31.6257 17.69C31.1923 18.1235 30.8795 18.632 30.6873 19.1737C30.6801 18.2952 30.3843 17.4133 29.7845 16.6807C28.4849 15.0933 26.6225 14.3459 25.1902 13.9789L25.1739 13.9748C25.1101 13.8242 25.0373 13.6784 24.9562 13.5379C25.1337 13.2305 25.2714 12.8971 25.3622 12.5449C26.4228 12.577 27.4939 12.1881 28.3035 11.3782C29.861 9.82014 29.8611 7.29393 28.3036 5.73579L25.0245 2.45542C23.0781 0.508242 19.9223 0.508181 17.9758 2.45531L14.6965 5.7357C13.139 7.29379 13.1389 9.81999 14.6964 11.3781C15.506 12.188 16.5771 12.577 17.6378 12.5449C17.7286 12.8971 17.8663 13.2305 18.0438 13.5379C17.9676 13.6699 17.8988 13.8066 17.8378 13.9476C17.1131 14.1217 16.3976 14.3571 15.7228 14.6658C14.4608 15.2432 12.734 16.3724 11.9424 18.4049C11.7843 18.1509 11.595 17.9108 11.3744 17.6901C9.81688 16.132 7.29161 16.1319 5.73405 17.69L2.45489 20.9703C0.508422 22.9174 0.50836 26.0744 2.45477 28.0215L5.73395 31.302C7.29147 32.8602 9.81674 32.8602 11.3743 31.3021C11.859 30.8173 12.1929 30.2387 12.3759 29.6246C12.4176 29.6813 12.461 29.7373 12.5061 29.7923C13.8191 31.3963 15.8232 32.3983 17.7896 32.9357C17.8617 33.1181 17.9468 33.2939 18.0438 33.462C17.8663 33.7694 17.7286 34.1028 17.6378 34.4551C16.5772 34.423 15.5061 34.8119 14.6965 35.6218C13.139 37.1799 13.1389 39.7061 14.6964 41.2642L17.9755 44.5446C19.9219 46.4918 23.0777 46.4918 25.0242 44.5447L28.3035 41.2643C29.861 39.7062 29.8611 37.18 28.3036 35.6219C27.494 34.812 26.4229 34.423 25.3622 34.4551C25.2714 34.1028 25.1337 33.7694 24.9562 33.462C25.0196 33.3521 25.0779 33.2389 25.1309 33.1228C25.5775 33.0284 26.0262 32.9134 26.475 32.7763C27.8909 32.3439 29.2897 31.5451 30.2737 30.2349ZM30.4217 20.6424C30.4341 20.61 30.4461 20.5775 30.4576 20.5449C30.4579 20.5741 30.4584 20.6033 30.4593 20.6325C30.4467 20.6357 30.4342 20.639 30.4217 20.6424Z" stroke="#33D1DA" stroke-width="0.01" stroke-linecap="round"/>
<path d="M26.699 19.2087C24.6164 16.665 16.4147 17.041 15.5917 20.0567C14.8975 22.6007 19.7572 23.1458 23.9222 23.8726C28.0872 24.5994 28.6428 27.9428 25.3106 28.9604C21.1453 30.2323 16.9801 28.9605 15.5917 27.2645" stroke="white" stroke-width="2" stroke-linecap="round"/>
<path d="M21.5 15.5303V31.4695" stroke="white" stroke-width="2" stroke-linecap="round"/>
<path d="M21.5 35.4543V40.4353" stroke="white" stroke-width="2" stroke-linecap="round"/>
<path d="M25.4833 38.4429L21.4999 42.4277L17.5167 38.4429" stroke="white" stroke-width="2" stroke-linecap="round"/>
<path d="M21.5 11.5455V6.56445" stroke="white" stroke-width="2" stroke-linecap="round"/>
<path d="M17.5167 8.55682L21.5001 4.57202L25.4833 8.55682" stroke="white" stroke-width="2" stroke-linecap="round"/>
<path d="M11.5417 24.4961H6.56251" stroke="white" stroke-width="2" stroke-linecap="round"/>
<path d="M8.55417 28.4809L4.57084 24.496L8.55417 20.5113" stroke="white" stroke-width="2" stroke-linecap="round"/>
<path d="M31.4583 24.4961H36.4375" stroke="white" stroke-width="2" stroke-linecap="round"/>
<path d="M34.4458 20.5113L38.4292 24.4962L34.4458 28.4809" stroke="white" stroke-width="2" stroke-linecap="round"/>
</g>
</svg>
