<svg width="42" height="46" viewBox="0 0 42 46" fill="none" xmlns="http://www.w3.org/2000/svg">
<path d="M29.8104 29.7607C29.9445 29.5823 30.068 29.3978 30.1806 29.208C30.368 29.802 30.6971 30.361 31.168 30.8319C32.732 32.396 35.2678 32.396 36.8319 30.832L40.1248 27.5392C42.0794 25.5847 42.0795 22.4157 40.1249 20.4611L36.832 17.1681C35.268 15.604 32.7322 15.604 31.1681 17.168C30.7329 17.6032 30.4187 18.1137 30.2257 18.6575C30.2186 17.7756 29.9215 16.8902 29.3192 16.1548C28.0141 14.5614 26.144 13.8112 24.7056 13.4428L24.6892 13.4386C24.6252 13.2874 24.5521 13.141 24.4707 13C24.6489 12.6914 24.7871 12.3568 24.8783 12.0033C25.9434 12.0354 27.0189 11.645 27.8319 10.8321C29.396 9.26808 29.396 6.73225 27.832 5.16818L24.5392 1.8753C22.5847 -0.079306 19.4157 -0.0793671 17.4611 1.87518L14.1681 5.16808C12.604 6.73211 12.604 9.26793 14.168 10.832C14.981 11.645 16.0565 12.0354 17.1217 12.0033C17.2129 12.3568 17.3511 12.6914 17.5293 13C17.4528 13.1325 17.3837 13.2698 17.3225 13.4113C16.5947 13.586 15.8763 13.8224 15.1987 14.1323C13.9313 14.7119 12.1973 15.8454 11.4024 17.8856C11.2437 17.6306 11.0535 17.3896 10.832 17.1681C9.26799 15.604 6.73216 15.604 5.16809 17.168L1.87521 20.4608C-0.0793969 22.4153 -0.0794599 25.5843 1.87509 27.5389L5.16799 30.8319C6.73202 32.396 9.26784 32.396 10.8319 30.832C11.3187 30.3453 11.6539 29.7644 11.8377 29.1481C11.8796 29.205 11.9231 29.2611 11.9684 29.3165C13.287 30.9265 15.2994 31.9323 17.2741 32.4718C17.3465 32.6549 17.432 32.8314 17.5294 33.0001C17.3511 33.3087 17.2129 33.6434 17.1217 33.997C16.0566 33.9648 14.9811 34.3552 14.1681 35.1681C12.604 36.7322 12.604 39.268 14.168 40.8321L17.4608 44.125C19.4153 46.0796 22.5843 46.0796 24.5389 44.1251L27.8319 40.8322C29.396 39.2681 29.396 36.7323 27.832 35.1682C27.019 34.3552 25.9435 33.9648 24.8783 33.997C24.7871 33.6434 24.6489 33.3087 24.4706 33.0001C24.5343 32.8898 24.5929 32.7762 24.646 32.6596C25.0946 32.5648 25.5451 32.4494 25.9958 32.3118C27.4176 31.8778 28.8223 31.0759 29.8104 29.7607ZM29.959 20.1316C29.9715 20.0991 29.9835 20.0664 29.9951 20.0336C29.9954 20.063 29.996 20.0923 29.9968 20.1217C29.9842 20.1249 29.9716 20.1283 29.959 20.1316Z" stroke="#33D1DA" stroke-width="0.01" stroke-linecap="round"/>
<path d="M26.2207 18.6925C24.1294 16.139 15.8934 16.5165 15.067 19.5437C14.3699 22.0973 19.2499 22.6445 23.4323 23.3741C27.6147 24.1037 28.1727 27.4599 24.8265 28.4813C20.6439 29.7581 16.4612 28.4814 15.067 26.7789" stroke="white" stroke-width="2" stroke-linecap="round"/>
<path d="M21 15V31" stroke="white" stroke-width="2" stroke-linecap="round"/>
<path d="M21 35V40" stroke="white" stroke-width="2" stroke-linecap="round"/>
<path d="M25 38L20.9999 42L17 38" stroke="white" stroke-width="2" stroke-linecap="round"/>
<path d="M21 11V6" stroke="white" stroke-width="2" stroke-linecap="round"/>
<path d="M17 8L21.0001 4L25 8" stroke="white" stroke-width="2" stroke-linecap="round"/>
<path d="M11 24H6" stroke="white" stroke-width="2" stroke-linecap="round"/>
<path d="M8 28L4 23.9999L8 20" stroke="white" stroke-width="2" stroke-linecap="round"/>
<path d="M31 24H36" stroke="white" stroke-width="2" stroke-linecap="round"/>
<path d="M34 20L38 24.0001L34 28" stroke="white" stroke-width="2" stroke-linecap="round"/>
</svg>
