<svg width="359" height="91" viewBox="0 0 359 91" fill="none" xmlns="http://www.w3.org/2000/svg">
<path d="M18.7498 42.5836C18.7499 42.0826 18.8494 41.5865 19.0428 41.1239C19.2361 40.6613 19.5194 40.2413 19.8763 39.8879C20.2333 39.5345 20.6569 39.2547 21.1229 39.0646C21.5888 38.8745 22.0879 38.7779 22.5915 38.7802L28.9607 38.8009C29.9762 38.8009 30.9502 39.2023 31.6682 39.9166C32.3863 40.631 32.7898 41.5999 32.7898 42.6102V66.5705C33.5071 66.359 34.4252 66.1334 35.4354 65.8968C36.1353 65.733 36.7591 65.3388 37.2056 64.7781C37.652 64.2174 37.8951 63.5231 37.8952 62.8078V33.0889C37.8952 32.0786 38.2986 31.1096 39.0167 30.3951C39.7348 29.6806 40.7087 29.2791 41.7243 29.2789H48.1128C49.1284 29.2791 50.1023 29.6806 50.8204 30.3951C51.5385 31.1096 51.9419 32.0786 51.9419 33.0889V60.6729C51.9419 60.6729 53.5401 60.0295 55.096 59.3758C55.6741 59.1325 56.1675 58.7253 56.5145 58.2049C56.8615 57.6845 57.0468 57.074 57.0473 56.4495V23.5654C57.0473 22.5553 57.4507 21.5865 58.1686 20.8722C58.8865 20.1578 59.8603 19.7564 60.8757 19.7562H67.2575C68.2724 19.7572 69.2454 20.1589 69.9627 20.8732C70.6799 21.5875 71.0829 22.5558 71.0829 23.5654V50.6443C76.6157 46.6553 82.2229 41.8574 86.6727 36.0884C87.3183 35.251 87.7456 34.2676 87.9162 33.2261C88.0869 32.1845 87.9958 31.1171 87.651 30.119C85.5912 24.2237 82.317 18.8211 78.0379 14.2568C73.7588 9.69258 68.569 6.06727 62.8007 3.61285C57.0323 1.15844 50.8125 -0.0710137 44.5391 0.0031677C38.2657 0.0773491 32.077 1.45353 26.369 4.04365C20.6609 6.63377 15.5592 10.3808 11.3904 15.0449C7.2215 19.7091 4.07728 25.1876 2.15891 31.13C0.240538 37.0723 -0.409743 43.3477 0.249675 49.5544C0.909094 55.7611 2.86369 61.7626 5.98839 67.1747C6.53278 68.1083 7.33371 68.868 8.29708 69.3645C9.26044 69.8609 10.3462 70.0736 11.4269 69.9774C12.6341 69.8717 14.1372 69.7223 15.9242 69.5138C16.702 69.4257 17.4201 69.0562 17.9417 68.4755C18.4632 67.8949 18.7519 67.1436 18.7528 66.3649V42.5836" fill="#12161C"/>
<path d="M19 80.4053C25.6691 85.2803 33.5504 88.2064 41.7718 88.86C49.9933 89.5137 58.2344 87.8692 65.5835 84.1087C72.9326 80.3482 79.1031 74.6182 83.4123 67.5526C87.7215 60.4871 90.0015 52.3614 90 44.0746C90 43.0379 89.9521 42.0175 89.8835 41C73.5498 65.4779 43.3911 76.9211 19 80.4053Z" fill="#F0B90B"/>
<path d="M128.777 43.4163C131.181 43.8502 133.351 45.107 134.902 46.9639C136.448 48.7908 137.277 51.1015 137.24 53.4774C137.24 56.8892 136.076 59.5935 133.748 61.5902C131.42 63.5869 128.047 64.5853 123.629 64.5853H107V23.5268H123.333C127.515 23.5268 130.72 24.4476 132.949 26.2892C135.178 28.1308 136.293 30.6606 136.293 33.8786C136.4 36.1587 135.664 38.3999 134.222 40.1886C132.811 41.8159 130.9 42.9486 128.777 43.4163ZM113.746 41.2064H122.09C124.457 41.2064 126.262 40.6636 127.505 39.578C128.136 39.0029 128.63 38.2983 128.952 37.5143C129.274 36.7302 129.417 35.886 129.369 35.0418C129.413 34.2065 129.268 33.3721 128.946 32.5981C128.624 31.824 128.132 31.1294 127.505 30.5637C126.262 29.4781 124.378 28.9353 121.854 28.9353H113.746V41.2064ZM122.268 59.1186C124.832 59.1186 126.815 58.5467 128.215 57.403C128.917 56.8157 129.471 56.0773 129.836 55.2452C130.2 54.4131 130.364 53.5097 130.316 52.605C130.362 51.6937 130.193 50.7843 129.824 49.9472C129.454 49.1101 128.894 48.3679 128.185 47.7781C126.765 46.6149 124.773 46.0334 122.209 46.0334H113.746V59.1186H122.268ZM154.283 32.1339C158.109 32.1339 161.177 33.0935 163.485 35.0127C165.818 36.977 167.326 39.7232 167.716 42.7184H161.325C161.111 41.088 160.301 39.5895 159.046 38.5021C157.658 37.3861 155.897 36.8163 154.105 36.9028C152.689 36.8137 151.289 37.2379 150.17 38.095C149.708 38.4969 149.343 38.9954 149.102 39.5539C148.862 40.1124 148.751 40.7168 148.779 41.3227C148.761 41.7767 148.841 42.2293 149.014 42.6505C149.188 43.0717 149.451 43.4517 149.785 43.7652C150.511 44.4176 151.368 44.913 152.3 45.2192C153.709 45.6789 155.141 46.0671 156.591 46.3823C158.612 46.8029 160.599 47.3665 162.538 48.0688C164.057 48.6502 165.4 49.6007 166.444 50.8313C167.598 52.2988 168.176 54.126 168.071 55.9781C168.105 57.2266 167.842 58.4655 167.302 59.5964C166.763 60.7272 165.962 61.7186 164.964 62.4917C162.893 64.1588 160.102 64.9924 156.591 64.9924C152.527 64.9924 149.243 64.0619 146.738 62.2009C145.49 61.2668 144.446 60.0954 143.668 58.7566C142.89 57.4178 142.395 55.9389 142.21 54.4079H148.779C148.858 55.2369 149.108 56.0413 149.515 56.7715C149.922 57.5017 150.478 58.1421 151.146 58.6533C152.715 59.7981 154.639 60.3735 156.591 60.2817C157.979 60.3596 159.345 59.9121 160.408 59.0313C160.859 58.6338 161.218 58.1444 161.458 57.5971C161.698 57.0497 161.814 56.4576 161.798 55.8618C161.823 55.3673 161.741 54.8731 161.557 54.412C161.374 53.9509 161.093 53.5332 160.733 53.1866C159.966 52.4941 159.058 51.9689 158.07 51.6455C156.635 51.1799 155.173 50.8012 153.691 50.5114C151.735 50.0862 149.808 49.5423 147.921 48.883C146.445 48.3423 145.139 47.4298 144.134 46.2369C143.022 44.8174 142.466 43.053 142.566 41.2645C142.529 40.0031 142.791 38.7506 143.33 37.6054C143.869 36.4601 144.671 35.4532 145.672 34.6637C147.744 32.9772 150.614 32.1339 154.283 32.1339ZM189.316 32.1339C193.537 32.1339 197.028 33.2292 199.79 35.4198C202.581 37.6589 204.417 40.8436 204.938 44.3468H197.778C197.466 42.4668 196.441 40.7729 194.908 39.6071C193.254 38.4212 191.243 37.8169 189.197 37.8914C187.979 37.8627 186.769 38.089 185.646 38.5552C184.524 39.0215 183.516 39.717 182.688 40.5957C180.952 42.3986 180.084 45.0447 180.084 48.5341C180.084 52.0235 180.952 54.6793 182.688 56.5015C183.511 57.3877 184.518 58.0902 185.641 58.5617C186.764 59.0332 187.977 59.2627 189.197 59.2349C191.247 59.3092 193.262 58.6937 194.908 57.4902C196.438 56.3093 197.462 54.6078 197.778 52.7214H204.938C204.413 56.2312 202.578 59.4235 199.79 61.6775C197.028 63.8874 193.537 64.9924 189.316 64.9924C186.398 65.0496 183.515 64.3687 180.942 63.0151C178.517 61.6985 176.534 59.7187 175.231 57.3157C173.795 54.6081 173.083 51.5864 173.16 48.5341C173.087 45.5008 173.8 42.499 175.231 39.8106C176.534 37.4077 178.517 35.4278 180.942 34.1113C183.515 32.7576 186.398 32.0767 189.316 32.1339ZM238.906 53.6519C238.92 55.6174 238.41 57.5521 237.427 59.264C236.373 61.0522 234.81 62.4979 232.929 63.4222C230.631 64.5323 228.091 65.0715 225.532 64.9924C222.909 65.0354 220.307 64.5299 217.898 63.5094C215.764 62.6097 213.907 61.176 212.513 59.3512C211.166 57.5523 210.366 55.4147 210.205 53.1866H217.425C217.61 54.9464 218.441 56.5796 219.762 57.781C220.502 58.4386 221.366 58.9466 222.305 59.276C223.244 59.6053 224.24 59.7494 225.236 59.7002C226.101 59.7538 226.967 59.6374 227.785 59.3578C228.603 59.0782 229.356 58.641 230 58.0718C230.56 57.526 230.999 56.8722 231.289 56.1516C231.579 55.4309 231.715 54.659 231.687 53.8845C231.74 52.5641 231.298 51.2705 230.444 50.2497C229.6 49.2884 228.549 48.5236 227.367 48.0107C226.144 47.4679 224.467 46.8475 222.337 46.1497C220.155 45.4993 218.028 44.6826 215.975 43.7071C214.314 42.8725 212.882 41.6554 211.803 40.1595C210.584 38.3556 209.983 36.2162 210.087 34.0531C210.043 31.9963 210.619 29.9727 211.744 28.2374C212.905 26.5231 214.551 25.1791 216.478 24.37C218.719 23.4215 221.14 22.9555 223.579 23.0033C227.84 23.0033 231.223 24.0114 233.728 26.0275C234.95 26.9924 235.96 28.1908 236.698 29.5502C237.435 30.9096 237.885 32.4019 238.019 33.9368H230.74C230.473 32.4029 229.692 31.0007 228.521 29.9531C227.155 28.7907 225.383 28.1963 223.579 28.2956C221.935 28.215 220.317 28.721 219.023 29.7204C218.439 30.2314 217.981 30.866 217.684 31.5763C217.387 32.2865 217.258 33.0539 217.306 33.8205C217.258 35.0772 217.679 36.3079 218.49 37.2808C219.307 38.212 220.329 38.9479 221.478 39.4326C222.682 39.956 224.329 40.5666 226.42 41.2645C228.644 41.9169 230.81 42.7434 232.9 43.7362C234.6 44.5893 236.062 45.837 237.16 47.371C238.404 49.2305 239.015 51.4295 238.906 53.6519ZM260.151 32.1339C264.372 32.1339 267.864 33.2292 270.625 35.4198C273.416 37.6589 275.252 40.8436 275.774 44.3468H268.613C268.302 42.4668 267.276 40.7729 265.743 39.6071C264.09 38.4212 262.078 37.8169 260.032 37.8914C258.814 37.8627 257.604 38.089 256.482 38.5552C255.359 39.0215 254.351 39.717 253.523 40.5957C251.787 42.3986 250.919 45.0447 250.919 48.5341C250.919 52.0235 251.787 54.6793 253.523 56.5015C254.346 57.3877 255.353 58.0902 256.476 58.5617C257.599 59.0332 258.812 59.2627 260.032 59.2349C262.083 59.3092 264.097 58.6937 265.743 57.4902C267.273 56.3093 268.297 54.6078 268.613 52.7214H275.774C275.248 56.2312 273.413 59.4235 270.625 61.6775C267.864 63.8874 264.372 64.9924 260.151 64.9924C257.233 65.0496 254.35 64.3687 251.777 63.0151C249.353 61.6985 247.369 59.7187 246.067 57.3157C244.631 54.6081 243.918 51.5864 243.995 48.5341C243.922 45.5008 244.635 42.499 246.067 39.8106C247.369 37.4077 249.353 35.4278 251.777 34.1113C254.35 32.7576 257.233 32.0767 260.151 32.1339ZM295.361 32.1339C298.053 32.0566 300.702 32.8091 302.936 34.2857C304.992 35.6757 306.546 37.6713 307.374 39.9851V32.541H314.121V64.5853H307.374V57.1413C306.546 59.455 304.992 61.4507 302.936 62.8406C300.702 64.3173 298.053 65.0697 295.361 64.9924C292.689 65.0366 290.057 64.3522 287.757 63.0151C285.487 61.653 283.668 59.6733 282.52 57.3157C281.199 54.5741 280.551 51.5665 280.626 48.5341C280.555 45.5208 281.203 42.533 282.52 39.8106C283.668 37.4531 285.487 35.4733 287.757 34.1113C290.057 32.7741 292.689 32.0897 295.361 32.1339ZM297.433 37.9496C296.099 37.8907 294.768 38.1118 293.528 38.5982C292.288 39.0845 291.168 39.825 290.242 40.7702C288.447 42.6506 287.55 45.2385 287.55 48.5341C287.55 51.8296 288.447 54.4176 290.242 56.298C291.168 57.2432 292.288 57.9836 293.528 58.47C294.768 58.9564 296.099 59.1775 297.433 59.1186C299.219 59.1465 300.978 58.694 302.522 57.8101C304.031 56.927 305.261 55.6483 306.072 54.1171C306.973 52.3918 307.42 50.4726 307.374 48.5341C307.414 46.6055 306.966 44.6974 306.072 42.9801C305.267 41.4369 304.037 40.1471 302.522 39.2581C300.978 38.3742 299.219 37.9217 297.433 37.9496ZM340.454 32.0176C344.242 32.0176 347.28 33.2195 349.568 35.6233C351.856 38.0271 353 41.4584 353 45.917V64.5853H346.254V46.6149C346.254 43.7459 345.504 41.5262 344.005 39.956C343.208 39.157 342.247 38.5338 341.186 38.1277C340.125 37.7217 338.988 37.542 337.851 37.6007C336.654 37.549 335.461 37.7478 334.349 38.1839C333.237 38.6201 332.232 39.2836 331.4 40.1305C329.783 41.817 328.974 44.2887 328.974 47.5454V64.5853H322.228V32.541H328.974V39.578C329.754 37.2862 331.296 35.3194 333.353 33.9949C335.468 32.6585 337.94 31.9703 340.454 32.0176Z" fill="#12161C"/>
</svg>
