<svg width="260" height="71" viewBox="0 0 260 71" fill="none" xmlns="http://www.w3.org/2000/svg">
<g clip-path="url(#clip0)">
<path d="M55.0493 14.6402C50.8427 12.6785 46.3447 11.2527 41.6422 10.4409C41.0647 11.4816 40.39 12.8814 39.9248 13.995C34.9259 13.2457 29.973 13.2457 25.0661 13.995C24.601 12.8814 23.9109 11.4816 23.3282 10.4409C18.6207 11.2527 14.1175 12.6837 9.91089 14.6506C1.42602 27.4304 -0.874092 39.8928 0.275965 52.1783C5.90358 56.3671 11.3574 58.9117 16.7192 60.5768C18.0431 58.7607 19.2238 56.8302 20.2409 54.7957C18.3037 54.062 16.4483 53.1566 14.6952 52.1055C15.1603 51.762 15.6152 51.403 16.0547 51.0335C26.7477 56.0185 38.3658 56.0185 48.931 51.0335C49.3757 51.403 49.8306 51.762 50.2906 52.1055C48.5323 53.1617 46.6718 54.0671 44.7346 54.8009C45.7518 56.8302 46.9274 58.766 48.2563 60.5819C53.6233 58.9168 59.0822 56.3723 64.7098 52.1783C66.0592 37.9363 62.4046 25.5884 55.0493 14.6402ZM21.6977 44.6228C18.4878 44.6228 15.8554 41.636 15.8554 37.9987C15.8554 34.3615 18.4315 31.3695 21.6977 31.3695C24.9639 31.3695 27.5962 34.3563 27.54 37.9987C27.5451 41.636 24.9639 44.6228 21.6977 44.6228ZM43.2881 44.6228C40.0782 44.6228 37.4458 41.636 37.4458 37.9987C37.4458 34.3615 40.0219 31.3695 43.2881 31.3695C46.5542 31.3695 49.1866 34.3563 49.1304 37.9987C49.1304 41.636 46.5542 44.6228 43.2881 44.6228Z" fill="#5865F2"/>
<path d="M87.327 23.2324H101.281C104.644 23.2324 107.486 23.7684 109.817 24.8351C112.142 25.9018 113.886 27.39 115.041 29.2945C116.196 31.199 116.778 33.3792 116.778 35.8353C116.778 38.2393 116.175 40.4196 114.969 42.3709C113.763 44.3274 111.928 45.8729 109.459 47.0124C106.991 48.152 103.934 48.7243 100.279 48.7243H87.327V23.2324ZM100.136 42.246C102.4 42.246 104.144 41.6684 105.36 40.5184C106.577 39.3632 107.185 37.7918 107.185 35.7989C107.185 33.9516 106.643 32.479 105.559 31.3758C104.476 30.2727 102.835 29.716 100.642 29.716H96.2769V42.246H100.136Z" fill="#5865F2"/>
<path d="M137.669 48.6931C135.737 48.1832 133.994 47.4442 132.445 46.4712V40.4248C133.616 41.3457 135.185 42.1055 137.152 42.7038C139.12 43.2971 141.022 43.5936 142.862 43.5936C143.721 43.5936 144.37 43.4792 144.809 43.2502C145.249 43.0213 145.469 42.7455 145.469 42.4281C145.469 42.0638 145.352 41.762 145.111 41.5174C144.871 41.2729 144.406 41.0699 143.716 40.8982L139.422 39.9147C136.964 39.332 135.22 38.5254 134.183 37.4899C133.146 36.4596 132.629 35.1067 132.629 33.4312C132.629 32.021 133.079 30.7983 133.989 29.7523C134.893 28.7064 136.181 27.8998 137.853 27.3326C139.525 26.7603 141.477 26.4741 143.721 26.4741C145.724 26.4741 147.559 26.6926 149.231 27.1298C150.902 27.5669 152.282 28.1236 153.382 28.8052V34.5239C152.256 33.8423 150.968 33.3063 149.497 32.9004C148.029 32.4998 146.522 32.302 144.968 32.302C142.724 32.302 141.605 32.6923 141.605 33.4676C141.605 33.8319 141.779 34.1025 142.126 34.2846C142.473 34.4667 143.112 34.654 144.038 34.8518L147.615 35.5074C149.952 35.9185 151.694 36.6418 152.839 37.672C153.985 38.7024 154.557 40.227 154.557 42.246C154.557 44.4574 153.611 46.211 151.715 47.5119C149.818 48.8128 147.13 49.4632 143.644 49.4632C141.594 49.458 139.601 49.203 137.669 48.6931Z" fill="#5865F2"/>
<path d="M163.001 47.9279C160.953 46.9079 159.403 45.5239 158.371 43.7755C157.339 42.0271 156.817 40.0602 156.817 37.8747C156.817 35.6892 157.354 33.7327 158.427 32.0103C159.501 30.288 161.075 28.9351 163.15 27.9516C165.225 26.9682 167.704 26.479 170.592 26.479C174.17 26.479 177.14 27.2439 179.501 28.7737V35.4395C178.668 34.8566 177.697 34.3831 176.587 34.0189C175.478 33.6547 174.293 33.4725 173.025 33.4725C170.807 33.4725 169.074 33.8836 167.822 34.7109C166.569 35.5383 165.941 36.6154 165.941 37.9527C165.941 39.264 166.549 40.336 167.766 41.1789C168.983 42.0167 170.745 42.4382 173.061 42.4382C174.252 42.4382 175.428 42.2612 176.587 41.9126C177.743 41.5588 178.74 41.1269 179.573 40.6169V47.064C176.951 48.6667 173.91 49.4681 170.449 49.4681C167.536 49.4577 165.051 48.9477 163.001 47.9279Z" fill="#5865F2"/>
<path d="M188.426 47.928C186.361 46.9082 184.787 45.5136 183.703 43.7392C182.619 41.9648 182.072 39.9875 182.072 37.802C182.072 35.6166 182.614 33.6652 183.703 31.9533C184.791 30.2413 186.355 28.8988 188.411 27.9257C190.46 26.9527 192.908 26.4688 195.745 26.4688C198.582 26.4688 201.03 26.9527 203.08 27.9257C205.13 28.8988 206.694 30.2309 207.767 31.9324C208.841 33.634 209.377 35.5853 209.377 37.7968C209.377 39.9823 208.841 41.9596 207.767 43.734C206.694 45.5084 205.124 46.9029 203.059 47.9228C200.994 48.9427 198.556 49.4527 195.74 49.4527C192.924 49.4527 190.485 48.9479 188.426 47.928ZM199.297 41.4653C200.167 40.5807 200.606 39.4099 200.606 37.9529C200.606 36.496 200.171 35.3355 199.297 34.4769C198.429 33.6132 197.242 33.1813 195.74 33.1813C194.212 33.1813 193.015 33.6132 192.141 34.4769C191.273 35.3408 190.838 36.496 190.838 37.9529C190.838 39.4099 191.273 40.5807 192.141 41.4653C193.011 42.3499 194.212 42.7974 195.74 42.7974C197.242 42.7922 198.429 42.3499 199.297 41.4653Z" fill="#5865F2"/>
<path d="M230.875 27.8219V35.6896C229.966 35.0808 228.79 34.779 227.333 34.779C225.426 34.779 223.955 35.367 222.932 36.543C221.905 37.719 221.393 39.5506 221.393 42.0275V48.7296H212.628V27.4213H221.215V34.1962C221.69 31.7193 222.462 29.893 223.525 28.7117C224.583 27.5357 225.953 26.9478 227.619 26.9478C228.882 26.9478 229.966 27.2392 230.875 27.8219Z" fill="#5865F2"/>
<path d="M260 22.5044V48.7301H251.233V43.9585C250.492 45.7537 249.368 47.1222 247.855 48.0588C246.342 48.9903 244.471 49.4586 242.253 49.4586C240.27 49.4586 238.543 48.9694 237.065 47.986C235.588 47.0025 234.449 45.6549 233.646 43.9429C232.849 42.2309 232.444 40.2952 232.444 38.1306C232.419 35.8983 232.843 33.8949 233.717 32.1205C234.587 30.3461 235.818 28.962 237.402 27.9681C238.987 26.9742 240.797 26.4747 242.826 26.4747C247.002 26.4747 249.803 28.3219 251.233 32.0112V22.5044H260ZM249.926 41.3203C250.82 40.4357 251.265 39.2858 251.265 37.8808C251.265 36.5227 250.83 35.4143 249.961 34.5662C249.092 33.718 247.901 33.2913 246.403 33.2913C244.926 33.2913 243.746 33.7232 242.861 34.5869C241.977 35.4508 241.538 36.5695 241.538 37.9536C241.538 39.3378 241.977 40.467 242.861 41.3411C243.746 42.2153 244.911 42.6524 246.368 42.6524C247.845 42.6472 249.03 42.2049 249.926 41.3203Z" fill="#5865F2"/>
<path d="M124.165 29.6898C126.578 29.6898 128.535 27.9006 128.535 25.6935C128.535 23.4864 126.578 21.6973 124.165 21.6973C121.751 21.6973 119.795 23.4864 119.795 25.6935C119.795 27.9006 121.751 29.6898 124.165 29.6898Z" fill="#5865F2"/>
<path d="M119.791 32.4424C122.469 33.6183 125.792 33.6704 128.531 32.4424V48.8438H119.791V32.4424Z" fill="#5865F2"/>
</g>
<defs>
<clipPath id="clip0">
<rect width="260" height="71" fill="white"/>
</clipPath>
</defs>
</svg>
