<?xml version="1.0" encoding="utf-8"?>
<!-- Generator: Adobe Illustrator 25.2.1, SVG Export Plug-In . SVG Version: 6.00 Build 0)  -->
<svg version="1.1" id="Camada_1" xmlns="http://www.w3.org/2000/svg" xmlns:xlink="http://www.w3.org/1999/xlink" x="0px" y="0px"
	 viewBox="0 0 535.8 588.1" style="enable-background:new 0 0 535.8 588.1;" xml:space="preserve">
<style type="text/css">
	.st0{fill:#F7931E;}
	.st1{fill:#F7931E;stroke:#000000;stroke-width:4;stroke-miterlimit:10;}
	.st2{fill:none;stroke:#000000;stroke-width:4;stroke-linecap:round;stroke-miterlimit:10;}
	.st3{stroke:#000000;stroke-width:4;stroke-miterlimit:10;}
	.st4{fill:#FCFCFC;stroke:#000000;stroke-width:4;stroke-miterlimit:10;}
	.st5{fill:#FFDEC9;stroke:#000000;stroke-width:4;stroke-miterlimit:10;}
	.st6{fill:#754C24;stroke:#000000;stroke-width:4;stroke-linecap:round;stroke-linejoin:round;}
	.st7{fill:#FFFFFF;stroke:#000000;stroke-width:4;stroke-linecap:round;stroke-linejoin:round;}
	.st8{fill:#FFFFFF;stroke:#000000;stroke-width:4;stroke-miterlimit:10;}
	.st9{fill:#FFC41D;}
	.st10{fill:#FFFFFF;}
	.st11{fill:#E73800;stroke:#000000;stroke-miterlimit:10;}
	.st12{fill:#E73800;stroke:#000000;stroke-width:3;stroke-miterlimit:10;}
	.st13{fill:#E73800;}
	.st14{fill:none;}
	.st15{fill:#FFB317;}
	.st16{fill:#603502;}
	.st17{fill:#FFFFFF;stroke:#000000;stroke-width:2;stroke-miterlimit:10;}
	.st18{fill:#F2F2F2;stroke:#000000;stroke-width:4;stroke-miterlimit:10;}
	.st19{fill:#FFC41D;stroke:#000000;stroke-width:4.0001;stroke-miterlimit:10.0001;}
	.st20{stroke:#000000;stroke-width:3;stroke-linecap:round;stroke-miterlimit:10;}
</style>
<g>
	<path class="st0" d="M37.5,498.6c0,0-70.8-30.1-9.7-81.2l70.5-19.9l22.4,11.9c0,0,14.5,13.1,4,33.3c-7.1,13.7-29.1,24.8-62.5,50.3
		C54.2,499.1,49.6,495.2,37.5,498.6z"/>
	<path class="st1" d="M39,496.4c39.5,7.8,65.7-32.1,65.7-32.1c49.6-12.2,17.5-57.1,17.5-57.1s18,41.1-13.2,49.3
		c-11.1,2.9-22.2,17.6-22.2,17.6s-51,52.9-79.2-3.9c-27.1-54.6,52.2-63,52.2-63s37.6-16.8,44.3-5.9c0,0-67.4,14-31.3,36.3
		c40.4,25,52.3-17.7,49.4-30.4"/>
	<path class="st0" d="M305.6,570.7c0,0,73.4,45.2,76.2-29.6l-15.6-71.5l-21-14.2c0,0-55.2-13.6-46.4,89.7
		C299.5,552.4,304.3,562.1,305.6,570.7z"/>
	<path class="st1" d="M305.6,570.7c-25.4-31.2-2.5-73.1-2.5-73.1c-12.5-49.5,42.1-42.3,42.1-42.3s-44.8,3.4-37.3,34.8
		c2.7,11.1-5.1,27.9-5.1,27.9s-22.7,69.8,40.6,68c60.9-1.7,31.1-75.7,31.1-75.7s-0.9,10.9-3.3-15c0,0-14.9,21.2-33,2.3
		c-33.8-35.2-5.5-39,7-42.4"/>
	<path class="st2" d="M337.9,525.9c0,0,8.8-3.1,13.2,1.1"/>
	<path class="st2" d="M340.3,535.1c0,0,3.1-2.9,8.3,0"/>
	<path class="st3" d="M443.6,305.5c0,0,19.3-1.4,32.3,9.2c29.7,24.2-2.4,50-10.9,43.6c-27.6-20.8-78.6,4.4-78.6,4.4
		c3.1,36.6-33.4,41.9-33.4,41.9s70.7,41.7,32.3,77.1s-55.9-8-53.3-15.1c1.6-4.2,15.9-8,15.9-8s-40.9-48-45.5-50.8
		c-6.5-3.9-131.9-8.7-189.2,24.3C94.9,442.6,78,427,77.1,417.8c-2.6-26.5,90.1-44,125.1-49.3c44.6-6.7,61.3-5.8,61.3-5.8
		s85.5,1.1,10.8-20.6S152.1,235.2,152.1,235.2s38-14.1,40.4-24.7S277.6,363.7,443.6,305.5z"/>
	<path class="st4" d="M99.5,202.4c0,0,60.4,37,98.3-23.2c12.2-19.8-1.5-57.3-1.5-57.3s-7.6-7.2,34.7-28.4c42-21.1-3.8-56.5-3.8-56.5
		S204,13.5,171.8,23.9C127,38.4,150.9,104,150.9,104C161.4,0.8,100.6,8.5,100.6,8.5c1.7,2.8-51.4,24.8-63.5,39.5c0,0,0,0,16.4,9.3
		C75.9,70.1,97,96.5,97,95.5s-68.5,10.3-38.7,57.2c11.4,17.9,62.4,27.2,75.7,9.2c16.4-22.2-16.1-52.1-34.1-48.3"/>
	<path class="st4" d="M117.7,210.6c0,0,1.6,42.9,58.9,12.2c35.4-18.9,23.8-48.8,23.8-48.8C170.3,230.4,117.7,210.6,117.7,210.6z"/>
	<circle class="st5" cx="342.6" cy="203.8" r="143.3"/>
	<path class="st6" d="M205.2,136.9c27.4,23.1,111.6,46.6,146.6,16.8s-9.2,38.5-9.2,38.5s23.4,23.2,66-10.7s45.5,52.3,45.5,52.3
		s4.2-57.6,18-43.8s12,36.9,12,36.9S544.2,71.1,356.5,60.5C203.7,51.9,205.2,136.9,205.2,136.9z"/>
	<path class="st5" d="M465.5,233.9c0,0-3.7-14.7,8.4-6.2c5.6,3.9-2.1-20.3-4.4-22.5c-4.1-4-2.8,10.5-2.8,10.5"/>
	<path class="st5" d="M483.4,230.8c0,0-3.4,24-21.8,18.6"/>
	<g>
		<path class="st7" d="M505.5,435.8c38.3,0,25-33.3,25-33.3c14.4-26.9-24.1-52.9-24.1-52.9s-25.8,41-55.1,24.2c0,0-43,63.5,19,68"/>
		<path class="st8" d="M483.4,327.1c-1.1-2.6,45.2,3.2,7.1,42.1c-31.3,22.1-53.1,0.8-40.9-18C457.2,364,496.5,358.4,483.4,327.1z"/>
		<path class="st7" d="M497.7,399.3c0,0,24.5,69.8-27.3,42.5c0,0-31.4-30.5,5.4-28.9"/>
		<path class="st7" d="M516.1,378.6c0,0,9.6,9.1,11.6,20.7"/>
	</g>
	<g>
		<circle class="st9" cx="344.5" cy="367.2" r="14.6"/>
		<path class="st10" d="M351.7,377c-1,2.9-4.6,2.4-5.8-0.6c-1.9-4.4,6.2-10,6-11.4c-0.2-1.1-3.5,0.9-6.1,2.8
			c-0.7,0.8-1.5,1.6-2.3,2.4c-0.6,0.5-3.3-1.1-2.2-2.3c1.8-1.8,5-4.9,5-5.8c0-0.8-3.7,1.2-6.3,3c-1,1.6-2.3,2.8-3.9,3.8l0,0
			c0,0,0,0-0.1,0c-0.2,0.1-0.4,0.2-0.6,0.2l0,0c-2.1,0.6-3-0.5-3.3-2.6c0.1-0.1,0.3-0.2,0.4-0.2c-0.1,0,0.5,1,2.1,0.6
			c2.7-0.8,5.6-6,7.4-7.6c-1.3-0.5-2.7-0.3-3.7,0.6c-0.6,0.5-0.8,1.3-0.3,2c0.1,0.1,0.2,0.2,0.3,0.3c0,0.1,0,0.1,0,0.2
			c-3.1,0.3-3.2-2.8-1-3.9c2.2-1,4.5-0.1,6.3,0.4c0.6,0.2,2.4,0.7,1.6,1.5c-0.3,0.2-0.6,0.1-1-0.1c-0.8,0.1-1.6,1.1-2.5,2.3
			c5.2-3.3,8.2-0.6,7.2,1.1c-0.4,0.6-0.8,1.2-1.2,1.7c4.3-2.9,7-2.2,7.3-0.3c0.4,2.6-6,6.8-6.1,10.5c-0.1,1.9,1.5,1.7,2.2,1.3
			L351.7,377z"/>
	</g>
	<ellipse class="st3" cx="329.9" cy="326.8" rx="36.1" ry="12.1"/>
	<g>
		<path class="st11" d="M309.9,329.6c0,0,8.3,11.8,26,7.9c26.6-5.9,2.7-23.2-20.5-14C305.3,327.4,309.9,329.6,309.9,329.6z"/>
		<path class="st12" d="M307.8,329.8c0,0,9.7,9.8,24,9.1c16-0.7-3.9-21.6-19.2-17.2C303.3,324.4,307.8,329.8,307.8,329.8z"/>
		<path class="st13" d="M300,331.2c0,0,22.1,8.8,36.4,5.8s-9.8-14.5-20-14.2C303.6,323.2,300,331.2,300,331.2z"/>
	</g>
	<path class="st2" d="M53.7,437.5c0,0,7.9,4.9,7.5,10.9"/>
	<path class="st2" d="M48.2,445.2c0,0,4.1,0.6,5.3,6.5"/>
	<g>
		<g>
			<path class="st9" d="M203.2,74.6c18.7,51.6,3.8,107.8-52.1,124.5c-58.7,17.5-105.6-9.2-124.3-60.8s3.3-105.5,56.6-126
				C140.5-9.7,184.5,23,203.2,74.6z"/>
			<path d="M116.2,206.5c-15,0.1-29.8-3.3-43.2-10.1c-22-11.2-38.6-31.1-48.2-57.5C5.2,84.9,29.6,30.7,82.7,10.3
				c24.4-9.4,48.3-9.4,69,0c23.6,10.7,42.5,33.3,53.5,63.5c11,30.3,10.3,61.4-1.8,85.5c-10.2,20.3-28.1,34.8-51.6,41.8
				C140.2,204.6,128.3,206.5,116.2,206.5z M118.5,7.4c-11.8,0.1-23.4,2.5-34.3,6.9C33.3,33.8,10,85.7,28.8,137.6
				C38,163,53.9,182,74.9,192.8c21.7,11.1,47.9,12.6,75.6,4.3c22.4-6.7,39.4-20.4,49.1-39.6c11.6-23,12.2-53,1.6-82.1
				c-10.6-29.1-28.8-50.9-51.3-61.1C140.1,9.7,129.4,7.3,118.5,7.4z"/>
		</g>
		<path d="M20.6,93.1l13.9,1l-14.4,3.3l-0.3,4l9.8-2.3l-9.9,4.2v7.9l6.8-1.2l-6.7,3.2l14.6,0.9L20,116.3
			C20,116.3,17.7,101.5,20.6,93.1z"/>
		<polygon points="25,131.5 36.4,128.2 25.6,133.2 27.4,138.3 35.1,137 28.6,141.5 32.3,151.3 41.8,148.6 33.4,154.8 51.8,149.3 
			35.2,158.9 		"/>
		<polygon points="44.6,170.4 62,163.5 46.3,172.5 49,175.5 61.5,170.4 50.1,176.6 52.6,179.1 60.1,175.7 54.8,180.5 67,176.2 
			56.4,182 		"/>
		<g>
			<line class="st14" x1="28" y1="125" x2="53.5" y2="115.8"/>
			<rect x="27.1" y="120" transform="matrix(0.9401 -0.341 0.341 0.9401 -38.6268 21.0825)" width="27.1" height="0.8"/>
		</g>
		<g>
			<line class="st14" x1="71.7" y1="195" x2="85.3" y2="188.8"/>
			<rect x="71" y="191.5" transform="matrix(0.9106 -0.4133 0.4133 0.9106 -72.3079 49.586)" width="14.9" height="0.8"/>
		</g>
		<g>
			<line class="st14" x1="101.6" y1="202.4" x2="121.1" y2="195.1"/>
			<rect x="101" y="198.3" transform="matrix(0.937 -0.3494 0.3494 0.937 -62.4058 51.4398)" width="20.8" height="0.8"/>
		</g>
		<g>
			<path d="M52.9,69.7l-21.2,5.2"/>
			<rect x="31.4" y="71.9" transform="matrix(0.9707 -0.2402 0.2402 0.9707 -16.1288 12.2755)" width="21.8" height="0.8"/>
		</g>
		<g>
			<line class="st14" x1="59.2" y1="50.2" x2="38.8" y2="55.3"/>
			<rect x="38.5" y="52.3" transform="matrix(0.9695 -0.2451 0.2451 0.9695 -11.4177 13.6263)" width="21.1" height="0.8"/>
		</g>
		<path d="M43.5,36.4l13.2,7.3L37.1,48l-2.4,4l13.2-1.7l-14.3,3.6L29.5,62l10-0.8l-11,2.9l18.4-2.6l-19.7,5.9
			C27.2,67.4,36.2,43.6,43.5,36.4z"/>
		<g>
			<line class="st14" x1="83.6" y1="198.2" x2="107.4" y2="188.9"/>
			<rect x="82.7" y="193.2" transform="matrix(0.9314 -0.3641 0.3641 0.9314 -63.9475 48.0454)" width="25.5" height="0.8"/>
		</g>
		<g>
			<line class="st14" x1="42.1" y1="144" x2="59.5" y2="136.7"/>
			<rect x="41.4" y="140" transform="matrix(0.9208 -0.39 0.39 0.9208 -50.7341 30.9333)" width="18.8" height="0.8"/>
		</g>
		<g>
			<line class="st14" x1="51" y1="160.1" x2="66.7" y2="152.6"/>
			<rect x="50.1" y="155.9" transform="matrix(0.9029 -0.4299 0.4299 0.9029 -61.4913 40.4525)" width="17.4" height="0.8"/>
		</g>
		<g>
			<path d="M50.8,76.4c-21.2,5.2-12.5,2.5-12.5,2.5"/>
			<path d="M36.7,80c-0.4,0-0.5-0.1-0.5-0.3c-0.1-0.4,0.2-0.6,2-1.2l0.1,0.4c1.8-0.4,5.3-1.2,12.4-2.9l0.2,0.8
				C40.8,79.3,37.7,80,36.7,80z"/>
		</g>
		<g>
			<path d="M51.9,82.5C30.8,87.8,39.4,85,39.4,85"/>
			<path d="M37.8,86.1c-0.4,0-0.5-0.1-0.5-0.3c-0.1-0.4,0.2-0.6,2-1.2l0.1,0.4c1.8-0.4,5.3-1.2,12.4-2.9l0.2,0.8
				C41.9,85.4,38.8,86.1,37.8,86.1z"/>
		</g>
		<g>
			<path d="M51,97.6c-17.4,5.5-19.5,5.4-19.5,5.4"/>
			<path d="M31.4,103.4L31.4,103.4v-0.8c0.1,0,2.6,0,19.4-5.3l0.3,0.8C34.8,103.2,31.8,103.4,31.4,103.4z"/>
		</g>
		<g>
			<line class="st14" x1="78.9" y1="186.7" x2="92.5" y2="180.5"/>
			<rect x="78.2" y="183.2" transform="matrix(0.9106 -0.4133 0.4133 0.9106 -68.2346 51.8175)" width="14.9" height="0.8"/>
		</g>
		<g>
			<line class="st14" x1="75.6" y1="183.5" x2="89.2" y2="177.3"/>
			<rect x="74.9" y="180" transform="matrix(0.9106 -0.4133 0.4133 0.9106 -67.2039 50.1702)" width="14.9" height="0.8"/>
		</g>
		<g>
			
				<ellipse transform="matrix(0.9541 -0.2994 0.2994 0.9541 -24.6146 43.575)" class="st15" cx="129.9" cy="102.1" rx="81.8" ry="96.8"/>
			<path d="M138,199c-37.2,0-73.7-28.7-87.3-72C34.5,75.4,56.8,22.3,100.6,8.5c21.2-6.7,44.2-3.2,64.8,9.9
				c20.5,13,36.1,33.9,43.9,58.8l0,0c7.8,25,7,51-2.4,73.4s-26.3,38.4-47.5,45.1C152.4,197.9,145.2,199,138,199z M122.1,7.8
				c-7,0-14,1.1-20.7,3.2C59,24.3,37.4,76,53.1,126.3c13.2,42.2,48.7,70.2,84.9,70.2c7,0,13.9-1.1,20.6-3.1
				c20.5-6.4,36.8-21.9,45.9-43.7c9.2-21.8,10-47.2,2.3-71.6l0,0C199.2,53.6,184,33.2,164,20.5C150.7,12.1,136.3,7.8,122.1,7.8z"/>
		</g>
		<g>
			
				<ellipse transform="matrix(0.9541 -0.2994 0.2994 0.9541 -24.3293 44.2087)" class="st9" cx="132.1" cy="101.5" rx="76" ry="92.2"/>
			<path d="M140.7,193.6c-34.8,0-69.3-27.5-82.3-69C43,75.5,63.5,25.1,104.1,12.3s86.3,16.9,101.7,66l0,0
				c15.4,49.2-5.1,99.5-45.7,112.3C153.8,192.6,147.3,193.6,140.7,193.6z M123.6,11.9c-6.3,0-12.6,1-18.7,2.8
				C65.6,27.1,45.8,76,60.8,123.9c15,47.8,59.2,76.7,98.5,64.3c39.3-12.3,59.1-61.3,44.1-109.1C190.7,38.8,157.3,11.9,123.6,11.9z"
				/>
		</g>
		<path class="st16" d="M195.6,111.8c10,18.2-3.2,30.5-20.1,21.8C150,120.7,149.3,60.3,142.1,54c-5.6-4.6-6.6,19.4-5.9,39
			c2.2,10.1,3.8,18.8,3.8,20.8c0.3,4.7-15.2,8.9-16.9-1.3c-2.5-16.3-7.3-44.4-11-48.2c-3.7-3.6-5.8,21.5-5.5,41
			c3.7,12.4,6.8,25,5.3,34.1h0.1c0,0.2,0,0.3-0.1,0.4c-0.1,1.2-0.4,2.3-0.8,3.4c-0.1,0-0.1,0-0.1,0.2c-3.7,12-11.3,10.2-21.8,1.6
			c0-1,0.1-1.9,0.2-2.8c-0.1,0.6,6,2.2,9-5.8c4.6-15-10.4-52.6-11.7-67.5c-4.9,2.6-9.2,7.5-8.6,18.6c0.4,9.6,9.3,11.4,10.4,10.8
			c0.2,0.4,0.5,0.7,0.9,0.9c-8,15-22.4,0.2-20.4-14.2c2.1-14.3,13.1-19.9,20.7-24.7c2.5-1.7,10.6-6.8,11.6,0.6c0,1.9-1.5,3-3.6,3.9
			c-1.8,3.9,0,11.7,2.8,21.1c0.7-38,22.2-37.2,26.8-25.6c1.6,4.3,3,8.7,4.1,13.2c0.1-31.9,11.1-40.4,20.6-32.6
			c12.9,10.9,12.4,57.8,28.7,75.4c8.3,9,12.4,1.7,12.7-3.3L195.6,111.8z"/>
		<path d="M63,110.4h-0.8c0-5.6-0.4-11.2-1.3-16.7C59.2,81,57.8,70.1,71.5,49.9l0.7,0.5C58.6,70.3,60,80.6,61.7,93.6
			C62.6,99.1,63,104.7,63,110.4z"/>
		<path d="M149.3,183.1l-0.2-0.8c18.3-3.7,33.7-15.9,41.5-32.9l0.8,0.3C183.6,166.9,167.9,179.3,149.3,183.1z"/>
		<path d="M154.8,177.7l-0.3-0.8c10.3-3.7,20.1-12.8,24.4-22.6l0.8,0.3C175.3,164.6,165.3,173.9,154.8,177.7z"/>
		<path d="M83.3,171.5c-8.5-7.1-11.6-12.3-15.6-18.9c-1.5-2.6-3.1-5.2-5.2-8.3l0.7-0.5c2.1,3.1,3.7,5.8,5.2,8.3
			c3.9,6.5,6.9,11.7,15.4,18.7L83.3,171.5z"/>
		<path d="M145.2,20.8c-5-2.2-12-1.7-18.7-1.2c-5.2,0.4-10.1,0.8-13.8-0.1l0.2-0.8c3.6,0.9,8.5,0.5,13.6,0.1c4.3-0.5,8.7-0.5,13-0.2
			c-10.3-3.3-21.3-3.4-31.7-0.3l-0.2-0.8c12.6-3.8,26.1-2.8,38.1,2.7L145.2,20.8z"/>
		<path d="M119.7,26l-0.2-0.8c6.4-1.7,13.1-1.8,19.5,0l-0.2,0.8C132.5,24.3,125.9,24.3,119.7,26z"/>
	</g>
	<path class="st17" d="M293.3,326.2c0,0,38.2-14.3,69.6-0.4c0,0,4.7,0.2,1.6-3.4C354.6,310.9,296.8,307.9,293.3,326.2z"/>
	<path class="st8" d="M86.4,155.4c0,0,5.6,12.8,2.3,23.8c-2.3,7.4-8.6,14-23.6,15.2C30.6,197.2,28,168.5,28,168.5
		s-1.7-18.3,7.7-30.7C35.7,137.8,46,158.2,86.4,155.4z"/>
	<path class="st18" d="M306.5,222.6c3.4,26-11.7,48.2-29.5,49.3s-33.4-19.4-34.9-45.6s-1.7-41.4,14.9-35
		C273.9,197.8,305.8,216.9,306.5,222.6z"/>
	<path class="st8" d="M85.4,125.9c0,0,7,12.8,2.9,23.8c-2.8,7.4-10.8,14-29.6,15.2C15.4,167.7,12.1,139,12.1,139s-2.1-18.3,9.7-30.7
		C21.8,108.3,34.7,128.7,85.4,125.9z"/>
	<path class="st18" d="M321.5,225.2c-7,25.3,4.9,49.4,22.3,52.9s35.7-14.6,40.9-40.3s7.4-40.8-9.9-36.7
		C357.2,205.1,323,219.7,321.5,225.2z"/>
	
		<ellipse transform="matrix(0.5634 -0.8262 0.8262 0.5634 -103.9754 369.8233)" class="st19" cx="297.9" cy="283.3" rx="11.5" ry="26.6"/>
	<path d="M301.1,219.9c2.5,20.7-7.6,38.2-19.6,38.9c-8.4,0.5-16.2-7.4-20.5-19.4c-0.8-2.3,12.6-8.1,12.1-10.7
		c-0.4-1.7-14.8-0.1-15-1.9c-0.2-1.5-0.3-3-0.4-4.5c-1.2-20.8-1.4-32.9,9.8-27.7C278.9,200,300.5,215.4,301.1,219.9z"/>
	<path d="M371.4,204.5c6.6,39.5-8,66.9-19.9,67.6c-8.4,0.5-16.2-7.4-20.5-19.4c-0.8-2.3,12.6-8.1,12.1-10.7
		c-0.4-1.7-14.8-0.1-15-1.9c-0.2-1.5-0.3-3-0.4-4.5c-0.4-9.5-0.3-17.8,11.7-21C350.6,211.7,370.6,200,371.4,204.5z"/>
	<polygon class="st20" points="213.6,176.4 308.2,212.2 233.4,171.5 	"/>
	<polygon class="st20" points="415.7,192.9 316.2,211.3 397.1,184.6 	"/>
	<path class="st4" d="M179.7,22c0,0-33.6,24.9-23.2,38.5c19.7,25.8,52-4.8,52-4.8"/>
	<path class="st4" d="M43.5,36.4c0,0,60.8,51.7,74.1,29.3c21.3-36-28.5-63.5-28.5-63.5S36.2-2.1,43.5,36.4z"/>
</g>
</svg>
