<svg width="116" height="130" viewBox="0 0 116 130" fill="none" xmlns="http://www.w3.org/2000/svg">
<path d="M8.61989 110.052C8.61989 110.052 -6.55817 103.599 6.54041 92.6443L21.6542 88.3782L26.4563 90.9293C26.4563 90.9293 29.5648 93.7377 27.3138 98.0681C25.7917 101.005 21.0753 103.385 13.9151 108.851C12.2 110.159 11.2139 109.323 8.61989 110.052Z" fill="#F7931E"/>
<path d="M8.9414 109.58C17.4094 111.253 23.0261 102.699 23.0261 102.699C33.6593 100.083 26.7778 90.4577 26.7778 90.4577C26.7778 90.4577 30.6366 99.2687 23.948 101.027C21.5683 101.648 19.1887 104.8 19.1887 104.8C19.1887 104.8 8.25538 116.14 2.20988 103.964C-3.5998 92.2585 13.4005 90.4577 13.4005 90.4577C13.4005 90.4577 21.4612 86.8561 22.8975 89.1929C22.8975 89.1929 8.44833 92.1942 16.1874 96.9749C24.8484 102.334 27.3995 93.1803 26.7778 90.4577" fill="#F7931E"/>
<path d="M8.9414 109.58C17.4094 111.253 23.0261 102.699 23.0261 102.699C33.6593 100.083 26.7778 90.4577 26.7778 90.4577C26.7778 90.4577 30.6366 99.2687 23.948 101.027C21.5683 101.648 19.1887 104.8 19.1887 104.8C19.1887 104.8 8.25538 116.14 2.20988 103.964C-3.5998 92.2585 13.4005 90.4577 13.4005 90.4577C13.4005 90.4577 21.4612 86.8561 22.8975 89.1929C22.8975 89.1929 8.44833 92.1942 16.1874 96.9749C24.8484 102.334 27.3995 93.1803 26.7778 90.4577" stroke="black" stroke-width="0.859131" stroke-miterlimit="10"/>
<path d="M66.095 125.509C66.095 125.509 81.8305 135.198 82.4307 119.163L79.0864 103.835L74.5845 100.791C74.5845 100.791 62.7507 97.875 64.6372 120.02C64.7873 121.585 65.8163 123.665 66.095 125.509Z" fill="#F7931E"/>
<path d="M66.095 125.509C60.6498 118.82 65.5591 109.838 65.5591 109.838C62.8793 99.2258 74.5845 100.769 74.5845 100.769C74.5845 100.769 64.9803 101.498 66.5881 108.23C67.1669 110.609 65.4948 114.211 65.4948 114.211C65.4948 114.211 60.6284 129.175 74.1986 128.789C87.2543 128.424 80.8658 112.56 80.8658 112.56C80.8658 112.56 80.6728 114.897 80.1583 109.344C80.1583 109.344 76.9641 113.889 73.0838 109.838C65.8378 102.291 71.9047 101.477 74.5845 100.748" fill="#F7931E"/>
<path d="M66.095 125.509C60.6498 118.82 65.5591 109.838 65.5591 109.838C62.8793 99.2258 74.5845 100.769 74.5845 100.769C74.5845 100.769 64.9803 101.498 66.5881 108.23C67.1669 110.609 65.4948 114.211 65.4948 114.211C65.4948 114.211 60.6284 129.175 74.1986 128.789C87.2543 128.424 80.8658 112.56 80.8658 112.56C80.8658 112.56 80.6728 114.897 80.1583 109.344C80.1583 109.344 76.9641 113.889 73.0838 109.838C65.8378 102.291 71.9047 101.477 74.5845 100.748" stroke="black" stroke-width="0.859131" stroke-miterlimit="10"/>
<path d="M73.0194 115.905C73.0194 115.905 74.906 115.24 75.8492 116.14" stroke="black" stroke-width="0.859131" stroke-miterlimit="10" stroke-linecap="round"/>
<path d="M73.5339 117.877C73.5339 117.877 74.1985 117.255 75.3133 117.877" stroke="black" stroke-width="0.859131" stroke-miterlimit="10" stroke-linecap="round"/>
<path d="M95.6793 68.6553C95.6793 68.6553 99.8169 68.3551 102.604 70.6276C108.971 75.8155 102.089 81.3465 100.267 79.9745C94.3502 75.5154 83.4168 80.9178 83.4168 80.9178C84.0814 88.7641 76.2566 89.9003 76.2566 89.9003C76.2566 89.9003 91.4132 98.8399 83.181 106.429C74.9488 114.018 71.1972 104.714 71.7546 103.192C72.0976 102.291 75.1632 101.477 75.1632 101.477C75.1632 101.477 66.3951 91.1865 65.409 90.5863C64.0155 89.7502 37.1323 88.7212 24.8484 95.7957C20.9252 98.0467 17.3022 94.7024 17.1093 92.7301C16.5519 87.049 36.4249 83.2974 43.9281 82.1612C53.4895 80.7248 57.0696 80.9178 57.0696 80.9178C57.0696 80.9178 75.399 81.1536 59.3849 76.5015C43.3707 71.8495 33.1877 53.5844 33.1877 53.5844C33.1877 53.5844 41.3341 50.5616 41.8487 48.2892C42.3632 46.0168 60.0923 81.1321 95.6793 68.6553Z" fill="black" stroke="black" stroke-width="0.859131" stroke-miterlimit="10"/>
<path d="M21.9115 46.5527C21.9115 46.5527 34.86 54.4847 42.985 41.5791C45.6004 37.3344 42.6634 29.2951 42.6634 29.2951C42.6634 29.2951 41.0341 27.7516 50.1023 23.2067C59.1063 18.6833 49.2877 11.0943 49.2877 11.0943C49.2877 11.0943 44.3141 6.05639 37.4111 8.28594C27.8069 11.3944 32.9306 25.4577 32.9306 25.4577C35.1815 3.33378 22.1473 4.9845 22.1473 4.9845C22.5117 5.58476 11.1282 10.3011 8.53418 13.4525C8.53418 13.4525 8.53418 13.4525 12.05 15.4462C16.8521 18.1903 21.3755 23.8499 21.3755 23.6355C21.3755 23.4211 6.69052 25.8436 13.079 35.898C15.5229 39.7354 26.4563 41.7291 29.3075 37.8703C32.8234 33.1111 25.856 26.7011 21.9972 27.5158" fill="#FCFCFC"/>
<path d="M21.9115 46.5527C21.9115 46.5527 34.86 54.4847 42.985 41.5791C45.6004 37.3344 42.6634 29.2951 42.6634 29.2951C42.6634 29.2951 41.0341 27.7516 50.1023 23.2067C59.1063 18.6833 49.2877 11.0943 49.2877 11.0943C49.2877 11.0943 44.3141 6.05639 37.4111 8.28594C27.8069 11.3944 32.9306 25.4577 32.9306 25.4577C35.1815 3.33378 22.1473 4.9845 22.1473 4.9845C22.5117 5.58476 11.1282 10.3011 8.53418 13.4525C8.53418 13.4525 8.53418 13.4525 12.05 15.4462C16.8521 18.1903 21.3755 23.8499 21.3755 23.6355C21.3755 23.4211 6.69052 25.8436 13.079 35.898C15.5229 39.7354 26.4563 41.7291 29.3075 37.8703C32.8234 33.1111 25.856 26.7011 21.9972 27.5158" stroke="black" stroke-width="0.859131" stroke-miterlimit="10"/>
<path d="M25.813 48.3106C25.813 48.3106 26.156 57.5075 38.4399 50.9261C46.029 46.8743 43.5422 40.4644 43.5422 40.4644C37.0893 52.5554 25.813 48.3106 25.813 48.3106Z" fill="#FCFCFC" stroke="black" stroke-width="0.859131" stroke-miterlimit="10"/>
<path d="M74.027 77.5734C90.9935 77.5734 104.748 63.8193 104.748 46.8528C104.748 29.8863 90.9935 16.1323 74.027 16.1323C57.0605 16.1323 43.3064 29.8863 43.3064 46.8528C43.3064 63.8193 57.0605 77.5734 74.027 77.5734Z" fill="#FFDEC9" stroke="black" stroke-width="0.859131" stroke-miterlimit="10"/>
<path d="M44.5713 32.5108C50.4453 37.463 68.496 42.5009 75.9993 36.1124C83.5026 29.7239 74.027 44.366 74.027 44.366C74.027 44.366 79.0435 49.3396 88.1761 42.0722C97.3086 34.8047 97.9303 53.2842 97.9303 53.2842C97.9303 53.2842 98.8307 40.936 101.789 43.8944C104.748 46.8528 104.362 51.805 104.362 51.805C104.362 51.805 117.246 18.4047 77.0069 16.1322C44.2497 14.2886 44.5713 32.5108 44.5713 32.5108Z" fill="#754C24" stroke="black" stroke-width="0.859131" stroke-linecap="round" stroke-linejoin="round"/>
<path d="M100.374 53.3057C100.374 53.3057 99.581 50.1543 102.175 51.9766C103.376 52.8126 101.725 47.6247 101.232 47.153C100.353 46.2955 100.631 49.404 100.631 49.404" fill="#FFDEC9"/>
<path d="M100.374 53.3057C100.374 53.3057 99.581 50.1543 102.175 51.9766C103.376 52.8126 101.725 47.6247 101.232 47.153C100.353 46.2955 100.631 49.404 100.631 49.404" stroke="black" stroke-width="0.859131" stroke-miterlimit="10"/>
<path d="M104.212 52.6411C104.212 52.6411 103.483 57.7862 99.5382 56.6286L104.212 52.6411Z" fill="#FFDEC9"/>
<path d="M104.212 52.6411C104.212 52.6411 103.483 57.7862 99.5382 56.6286" stroke="black" stroke-width="0.859131" stroke-miterlimit="10"/>
<path d="M108.949 96.5888C117.16 96.5888 114.309 89.4499 114.309 89.4499C117.396 83.6831 109.142 78.1093 109.142 78.1093C109.142 78.1093 103.611 86.8988 97.3299 83.2972C97.3299 83.2972 88.1116 96.9103 101.403 97.875" fill="white"/>
<path d="M108.949 96.5888C117.16 96.5888 114.309 89.4499 114.309 89.4499C117.396 83.6831 109.142 78.1093 109.142 78.1093C109.142 78.1093 103.611 86.8988 97.3299 83.2972C97.3299 83.2972 88.1116 96.9103 101.403 97.875" stroke="black" stroke-width="0.859131" stroke-linecap="round" stroke-linejoin="round"/>
<path d="M104.212 73.286C103.976 72.7286 113.901 73.972 105.734 82.3113C99.0235 87.0491 94.3501 82.4828 96.9655 78.4525C98.5948 81.1966 107.02 79.996 104.212 73.286Z" fill="white" stroke="black" stroke-width="0.859131" stroke-miterlimit="10"/>
<path d="M107.277 88.7639C107.277 88.7639 112.529 103.728 101.425 97.875C101.425 97.875 94.6931 91.3365 102.582 91.6795" fill="white"/>
<path d="M107.277 88.7639C107.277 88.7639 112.529 103.728 101.425 97.875C101.425 97.875 94.6931 91.3365 102.582 91.6795" stroke="black" stroke-width="0.859131" stroke-linecap="round" stroke-linejoin="round"/>
<path d="M111.222 84.3264C111.222 84.3264 113.28 86.2773 113.709 88.7641L111.222 84.3264Z" fill="white"/>
<path d="M111.222 84.3264C111.222 84.3264 113.28 86.2773 113.709 88.7641" stroke="black" stroke-width="0.859131" stroke-linecap="round" stroke-linejoin="round"/>
<path d="M74.4343 85.0126C76.1629 85.0126 77.5642 83.6112 77.5642 81.8826C77.5642 80.154 76.1629 78.7527 74.4343 78.7527C72.7056 78.7527 71.3043 80.154 71.3043 81.8826C71.3043 83.6112 72.7056 85.0126 74.4343 85.0126Z" fill="#FFC41D"/>
<path d="M75.9777 83.9834C75.7633 84.6051 74.9916 84.4979 74.7343 83.8548C74.327 82.9115 76.0635 81.711 76.0206 81.4109C75.9777 81.1751 75.2703 81.6038 74.7129 82.0111C74.5628 82.1826 74.3913 82.3542 74.2198 82.5257C74.0912 82.6328 73.5123 82.2898 73.7482 82.0326C74.134 81.6467 74.8201 80.9821 74.8201 80.7892C74.8201 80.6177 74.0269 81.0464 73.4695 81.4323C73.2551 81.7753 72.9764 82.0326 72.6334 82.247C72.6334 82.247 72.6334 82.247 72.612 82.247C72.5691 82.2684 72.5262 82.2898 72.4833 82.2898C72.0331 82.4185 71.8402 82.1827 71.7759 81.7325C71.7973 81.711 71.8402 81.6896 71.8616 81.6896C71.8402 81.6896 71.9688 81.904 72.3118 81.8182C72.8907 81.6467 73.5124 80.5319 73.8982 80.1889C73.6195 80.0817 73.3194 80.1246 73.105 80.3175C72.9764 80.4247 72.9335 80.5962 73.0407 80.7463C73.0622 80.7677 73.0836 80.7892 73.105 80.8106C73.105 80.8321 73.105 80.8321 73.105 80.8535C72.4405 80.9178 72.419 80.2532 72.8906 80.0174C73.3623 79.803 73.8554 79.996 74.2412 80.1032C74.3699 80.146 74.7558 80.2532 74.5843 80.4247C74.5199 80.4676 74.4556 80.4462 74.3699 80.4033C74.1984 80.4247 74.0269 80.6391 73.8339 80.8964C74.9487 80.1889 75.5918 80.7677 75.3775 81.1322C75.2917 81.2608 75.206 81.3894 75.1202 81.4966C76.042 80.8749 76.6209 81.025 76.6852 81.4323C76.7709 81.9897 75.3989 82.8901 75.3775 83.6833C75.356 84.0906 75.699 84.0477 75.8491 83.962L75.9777 83.9834Z" fill="white"/>
<path d="M71.3044 75.8155C75.5786 75.8155 79.0435 74.6542 79.0435 73.2215C79.0435 71.7889 75.5786 70.6276 71.3044 70.6276C67.0302 70.6276 63.5653 71.7889 63.5653 73.2215C63.5653 74.6542 67.0302 75.8155 71.3044 75.8155Z" fill="black" stroke="black" stroke-width="0.859131" stroke-miterlimit="10"/>
<path d="M67.0168 73.8216C67.0168 73.8216 68.7962 76.3513 72.5907 75.5152C78.2932 74.2504 73.1695 70.5416 68.1959 72.5139C66.0307 73.35 67.0168 73.8216 67.0168 73.8216Z" fill="#E73800" stroke="black" stroke-width="0.214783" stroke-miterlimit="10"/>
<path d="M66.5665 73.8645C66.5665 73.8645 68.6459 75.9654 71.7116 75.8153C75.1416 75.6653 70.8755 71.1848 67.5955 72.128C65.6018 72.7069 66.5665 73.8645 66.5665 73.8645Z" fill="#E73800" stroke="black" stroke-width="0.644348" stroke-miterlimit="10"/>
<path d="M64.8945 74.1656C64.8945 74.1656 69.6323 76.0521 72.6979 75.409C75.7636 74.7658 70.597 72.3004 68.4104 72.3648C65.6663 72.4505 64.8945 74.1656 64.8945 74.1656Z" fill="#E73800"/>
<path d="M12.0928 96.9532C12.0928 96.9532 13.7864 98.0037 13.7006 99.29" stroke="black" stroke-width="0.859131" stroke-miterlimit="10" stroke-linecap="round"/>
<path d="M10.9136 98.6041C10.9136 98.6041 11.7925 98.7328 12.0498 99.9976" stroke="black" stroke-width="0.859131" stroke-miterlimit="10" stroke-linecap="round"/>
<path d="M44.1434 19.1558C48.1523 30.2178 44.958 42.2659 32.9742 45.8461C20.3901 49.5977 10.3357 43.8738 6.32683 32.8118C2.31793 21.7498 7.03428 10.1948 18.4607 5.8C30.7018 1.08365 40.1345 8.09386 44.1434 19.1558Z" fill="#FFC41D"/>
<path d="M25.4916 47.4317C22.2759 47.4531 19.1031 46.7242 16.2304 45.2665C11.514 42.8654 7.95532 38.5993 5.89728 32.9396C1.69544 21.3632 6.9263 9.74379 18.3098 5.37044C23.5407 3.35528 28.6644 3.35528 33.102 5.37044C38.1614 7.66431 42.2132 12.5093 44.5713 18.9835C46.9295 25.4792 46.7794 32.1464 44.1854 37.313C41.9988 41.6649 38.1614 44.7734 33.1235 46.274C30.6367 47.0244 28.0856 47.4317 25.4916 47.4317ZM25.9846 4.74874C23.455 4.77018 20.9682 5.28469 18.6314 6.22796C7.7195 10.4084 2.72446 21.5347 6.75479 32.661C8.72709 38.1062 12.1357 42.1794 16.6377 44.4947C21.2897 46.8743 26.9065 47.1959 32.8448 45.4165C37.6469 43.9802 41.2913 41.0432 43.3708 36.9271C45.8576 31.9964 45.9862 25.565 43.7138 19.3265C41.4414 13.0881 37.5397 8.41463 32.7161 6.22796C30.6152 5.24182 28.3214 4.72731 25.9846 4.74874Z" fill="black"/>
<path d="M4.99685 23.1211L7.97672 23.3355L4.88966 24.0429L4.82535 24.9004L6.92627 24.4074L4.80391 25.3078V27.0014L6.26169 26.7441L4.82535 27.4301L7.95529 27.6231L4.86822 28.0947C4.86822 28.0947 4.37515 24.9219 4.99685 23.1211Z" fill="black"/>
<path d="M5.94006 31.3533L8.38399 30.6458L6.06869 31.7177L6.45457 32.811L8.1053 32.5324L6.71183 33.4971L7.50503 35.598L9.54164 35.0192L7.74085 36.3483L11.6854 35.1692L8.12673 37.2273L5.94006 31.3533Z" fill="black"/>
<path d="M10.1421 39.6926L13.8723 38.2134L10.5065 40.1428L11.0854 40.7859L13.7651 39.6926L11.3212 41.0218L11.8571 41.5577L13.465 40.8288L12.3288 41.8578L14.9442 40.936L12.6718 42.1794L10.1421 39.6926Z" fill="black"/>
<path d="M11.9956 27.9044L6.53394 29.8855L6.59242 30.0467L12.0541 28.0656L11.9956 27.9044Z" fill="black"/>
<path d="M18.8158 43.565L15.9071 44.8852L15.978 45.0414L18.8867 43.7212L18.8158 43.565Z" fill="black"/>
<path d="M26.522 44.8998L22.3439 46.4578L22.4038 46.6185L26.582 45.0605L26.522 44.8998Z" fill="black"/>
<path d="M11.9216 18.1048L7.37671 19.2196L11.9216 18.1048Z" fill="black"/>
<path d="M11.8963 18.0167L7.35974 19.1393L7.40094 19.3058L11.9375 18.1832L11.8963 18.0167Z" fill="black"/>
<path d="M13.2685 13.822L8.88306 14.9307L8.92509 15.0969L13.3105 13.9882L13.2685 13.822Z" fill="black"/>
<path d="M9.90625 10.9657L12.7361 12.5307L8.53422 13.4525L8.01971 14.31L10.8495 13.9456L7.78389 14.7173L6.90494 16.4538L9.04873 16.2823L6.69056 16.904L10.6351 16.3466L6.41187 17.6115C6.41187 17.6115 8.34128 12.5092 9.90625 10.9657Z" fill="black"/>
<path d="M23.5565 43.5934L18.4648 45.5839L18.5273 45.7436L23.619 43.7532L23.5565 43.5934Z" fill="black"/>
<path d="M13.2929 32.3966L9.58179 33.9684L9.64867 34.1264L13.3598 32.5545L13.2929 32.3966Z" fill="black"/>
<path d="M14.8316 35.7902L11.4636 37.3938L11.5374 37.5486L14.9054 35.945L14.8316 35.7902Z" fill="black"/>
<path d="M11.4713 19.541C6.92649 20.6558 8.79159 20.077 8.79159 20.077L11.4713 19.541Z" fill="black"/>
<path d="M8.44836 20.3127C8.36261 20.3127 8.34117 20.2912 8.34117 20.2483C8.31973 20.1626 8.38405 20.1197 8.76993 19.9911L8.79137 20.0768C9.17725 19.9911 9.92758 19.8196 11.4497 19.4551L11.4926 19.6266C9.32732 20.1626 8.66274 20.3127 8.44836 20.3127Z" fill="black"/>
<path d="M11.7071 20.8488C7.18368 21.985 9.02734 21.3848 9.02734 21.3848L11.7071 20.8488Z" fill="black"/>
<path d="M8.6842 21.6203C8.59845 21.6203 8.57701 21.5989 8.57701 21.556C8.55557 21.4703 8.61989 21.4274 9.00577 21.2988L9.02721 21.3845C9.41309 21.2988 10.1634 21.1273 11.6855 20.7628L11.7284 20.9343C9.56316 21.4703 8.89858 21.6203 8.6842 21.6203Z" fill="black"/>
<path d="M11.5146 24.087C7.78443 25.2661 7.33423 25.2446 7.33423 25.2446L11.5146 24.087Z" fill="black"/>
<path d="M7.31226 25.3292V25.1577C7.33369 25.1577 7.86964 25.1577 11.4712 24.0215L11.5355 24.193C8.04115 25.2863 7.39801 25.3292 7.31226 25.3292Z" fill="black"/>
<path d="M20.3591 41.7852L17.4504 43.1054L17.5213 43.2616L20.43 41.9414L20.3591 41.7852Z" fill="black"/>
<path d="M19.6522 41.0997L16.7435 42.4199L16.8144 42.5761L19.7231 41.2559L19.6522 41.0997Z" fill="black"/>
<path d="M34.6399 44.8492C43.8803 41.9495 48.5895 30.7343 45.1581 19.7994C41.7267 8.86447 31.4541 2.35063 22.2136 5.25032C12.9732 8.15001 8.26401 19.3652 11.6954 30.3001C15.1268 41.235 25.3994 47.7488 34.6399 44.8492Z" fill="#FFB317"/>
<path d="M30.165 45.8238C22.1901 45.8238 14.3653 39.6711 11.4497 30.3885C7.97675 19.3265 12.7574 7.94295 22.1472 4.98451C26.6921 3.54817 31.6228 4.2985 36.039 7.10687C40.4338 9.8938 43.7781 14.3743 45.4503 19.7124C47.1224 25.0719 46.9509 30.6457 44.9358 35.4478C42.9206 40.2499 39.2976 43.68 34.7527 45.1163C33.2521 45.588 31.7086 45.8238 30.165 45.8238ZM26.7564 4.83445C25.2557 4.83445 23.7551 5.07026 22.3187 5.52046C13.229 8.37171 8.59845 19.4551 11.9642 30.2384C14.794 39.2852 22.4045 45.2879 30.165 45.2879C31.6657 45.2879 33.1449 45.052 34.5812 44.6233C38.976 43.2512 42.4704 39.9284 44.4213 35.2549C46.3935 30.5814 46.565 25.1362 44.9143 19.9053C43.285 14.653 40.0265 10.2797 35.7389 7.55707C32.8876 5.75628 29.8006 4.83445 26.7564 4.83445Z" fill="black"/>
<path d="M34.8174 43.7803C43.4027 41.0862 47.7129 30.4589 44.4445 20.0437C41.1762 9.62838 31.5669 3.36912 22.9816 6.06321C14.3964 8.75729 10.0862 19.3845 13.3545 29.7998C16.6229 40.2151 26.2321 46.4744 34.8174 43.7803Z" fill="#FFC41D"/>
<path d="M30.7438 44.6662C23.2834 44.6662 15.8873 38.7708 13.1004 29.8741C9.79896 19.348 14.1937 8.54331 22.8975 5.79925C31.6013 3.0552 41.3985 9.42227 44.6999 19.9483C48.0014 30.4958 43.6066 41.2791 34.9028 44.0231C33.5522 44.4519 32.1587 44.6662 30.7438 44.6662ZM27.0779 5.7135C25.7273 5.7135 24.3768 5.92788 23.069 6.31376C14.6439 8.97207 10.3992 19.4552 13.6149 29.724C16.8306 39.9713 26.3062 46.1669 34.7313 43.5086C43.1564 40.8717 47.4011 30.3671 44.1854 20.1198C41.4628 11.4803 34.3025 5.7135 27.0779 5.7135Z" fill="black"/>
<path d="M42.5132 27.1299C44.657 31.0316 41.8272 33.6685 38.2042 31.8034C32.7375 29.0379 32.5875 16.0894 31.0439 14.7388C29.8434 13.7527 29.629 18.8978 29.7791 23.0996C30.2507 25.2648 30.5937 27.1299 30.5937 27.5587C30.6581 28.5663 27.3352 29.4667 26.9707 27.28C26.4348 23.7856 25.4058 17.7616 24.6126 16.9469C23.8193 16.1751 23.3692 21.5561 23.4335 25.7365C24.2267 28.3948 24.8912 31.096 24.5697 33.0468H24.5911C24.5911 33.0897 24.5911 33.1111 24.5697 33.1326C24.5482 33.3898 24.4839 33.6256 24.3982 33.8614C24.3767 33.8614 24.3767 33.8614 24.3767 33.9043C23.5835 36.4769 21.9542 36.091 19.7033 34.2473C19.7033 34.033 19.7247 33.84 19.7461 33.6471C19.7247 33.7757 21.0324 34.1187 21.6756 32.4037C22.6617 29.188 19.446 21.1273 19.1673 17.9331C18.1169 18.4904 17.195 19.5409 17.3237 21.9205C17.4094 23.9786 19.3174 24.3644 19.5532 24.2358C19.5961 24.3216 19.6604 24.3859 19.7461 24.4288C18.0311 27.6444 14.944 24.4716 15.3728 21.3846C15.823 18.3189 18.1812 17.1184 19.8105 16.0894C20.3464 15.7249 22.0829 14.6316 22.2973 16.218C22.2973 16.6253 21.9757 16.8612 21.5255 17.0541C21.1396 17.8902 21.5255 19.5623 22.1258 21.5775C22.2758 13.4311 26.885 13.6026 27.8711 16.0894C28.2141 17.0112 28.5143 17.9545 28.7501 18.9192C28.7715 12.0805 31.1297 10.2583 33.1663 11.9304C35.9318 14.2672 35.8246 24.3216 39.319 28.0946C41.0983 30.0241 41.9773 28.4591 42.0416 27.3872L42.5132 27.1299Z" fill="#603502"/>
<path d="M14.0865 26.8298H13.915C13.915 25.6292 13.8292 24.4287 13.6363 23.2496C13.2719 20.527 12.9717 18.1903 15.9087 13.8598L16.0588 13.967C13.1432 18.2331 13.4434 20.4413 13.8078 23.2282C14.0007 24.4073 14.0865 25.6078 14.0865 26.8298Z" fill="black"/>
<path d="M32.5876 42.4153L32.5447 42.2438C36.4678 41.4506 39.7693 38.8351 41.4414 35.1907L41.6129 35.255C39.9408 38.9423 36.575 41.6006 32.5876 42.4153Z" fill="black"/>
<path d="M33.7666 41.2575L33.7023 41.086C35.9104 40.2928 38.0113 38.3419 38.9331 36.241L39.1046 36.3053C38.1614 38.4491 36.0176 40.4429 33.7666 41.2575Z" fill="black"/>
<path d="M18.4383 39.9284C16.6161 38.4063 15.9515 37.2916 15.094 35.8767C14.7725 35.3193 14.4294 34.7619 13.9792 34.0973L14.1293 33.9901C14.5795 34.6547 14.9225 35.2335 15.2441 35.7695C16.0802 37.1629 16.7233 38.2777 18.5455 39.7784L18.4383 39.9284Z" fill="black"/>
<path d="M31.7086 7.62142C30.6367 7.14978 29.1361 7.25697 27.6997 7.36416C26.5849 7.44992 25.5345 7.53567 24.7413 7.34273L24.7842 7.17122C25.5559 7.36416 26.6064 7.27841 27.6997 7.19266C28.6216 7.08547 29.5648 7.08547 30.4867 7.14978C28.2785 6.44233 25.9204 6.42089 23.6908 7.08547L23.6479 6.91397C26.3491 6.09932 29.2433 6.3137 31.8158 7.49279L31.7086 7.62142Z" fill="black"/>
<path d="M26.2418 8.73626L26.199 8.56476C27.571 8.20031 29.0073 8.17887 30.3794 8.56476L30.3365 8.73626C28.9859 8.37181 27.571 8.37181 26.2418 8.73626Z" fill="black"/>
<path d="M63.4581 73.0929C63.4581 73.0929 71.6474 70.0272 78.3789 73.0071C78.3789 73.0071 79.3865 73.05 78.7219 72.2782C76.5996 69.8129 64.2085 69.1697 63.4581 73.0929Z" fill="white" stroke="black" stroke-width="0.429565" stroke-miterlimit="10"/>
<path d="M19.1028 36.4769C19.1028 36.4769 20.3034 39.2209 19.5959 41.5791C19.1028 43.1655 17.7523 44.5804 14.5366 44.8377C7.14047 45.4379 6.58309 39.2852 6.58309 39.2852C6.58309 39.2852 6.21864 35.3621 8.23381 32.7038C8.23381 32.7038 10.4419 37.0771 19.1028 36.4769Z" fill="white" stroke="black" stroke-width="0.859131" stroke-miterlimit="10"/>
<path d="M66.2878 50.8832C67.0167 56.4571 63.7796 61.2163 59.9636 61.4521C56.1477 61.6879 52.8034 57.2932 52.4818 51.6764C52.1602 46.0597 52.1174 42.8011 55.6761 44.1731C59.2991 45.5666 66.1378 49.6612 66.2878 50.8832Z" fill="#F2F2F2" stroke="black" stroke-width="0.859131" stroke-miterlimit="10"/>
<path d="M18.8886 30.1527C18.8886 30.1527 20.3892 32.8968 19.5103 35.2549C18.91 36.8414 17.195 38.2563 13.1647 38.5135C3.88203 39.1138 3.17458 32.9611 3.17458 32.9611C3.17458 32.9611 2.72438 29.0379 5.25406 26.3796C5.25406 26.3796 8.01955 30.753 18.8886 30.1527Z" fill="white" stroke="black" stroke-width="0.859131" stroke-miterlimit="10"/>
<path d="M69.5036 51.4406C68.0029 56.8644 70.554 62.0309 74.2842 62.7812C78.0144 63.5316 81.9376 59.6513 83.0524 54.1417C84.1671 48.6322 84.6388 45.3951 80.93 46.274C77.1569 47.1315 69.8251 50.2615 69.5036 51.4406Z" fill="#F2F2F2" stroke="black" stroke-width="0.859131" stroke-miterlimit="10"/>
<path d="M69.1608 67.1109C69.9279 65.986 68.4404 63.6356 65.8384 61.8612C63.2363 60.0869 60.5051 59.5604 59.738 60.6853C58.9709 61.8103 60.4584 64.1606 63.0604 65.935C65.6624 67.7094 68.3937 68.2359 69.1608 67.1109Z" fill="#FFC41D" stroke="black" stroke-width="0.859152" stroke-miterlimit="10.0001"/>
<path d="M65.1302 50.3044C65.6662 54.7421 63.5009 58.4937 60.9284 58.6438C59.1276 58.751 57.4554 57.0574 56.5336 54.4848C56.3621 53.9917 59.2348 52.7483 59.1276 52.191C59.0418 51.8265 55.9548 52.1695 55.9119 51.7836C55.869 51.4621 55.8476 51.1405 55.8261 50.8189C55.5689 46.3598 55.526 43.7659 57.9271 44.8806C60.371 46.0383 65.0016 49.3397 65.1302 50.3044Z" fill="black"/>
<path d="M80.2011 47.0029C81.616 55.4709 78.486 61.3449 75.9349 61.495C74.1341 61.6022 72.462 59.9086 71.5401 57.336C71.3686 56.8429 74.2413 55.5995 74.1341 55.0422C74.0484 54.6777 70.9613 55.0207 70.9184 54.6348C70.8756 54.3133 70.8541 53.9917 70.8327 53.6701C70.7469 51.6335 70.7684 49.8542 73.3409 49.1682C75.742 48.5465 80.0296 46.0382 80.2011 47.0029Z" fill="black"/>
<path d="M46.3719 40.9789L66.6522 48.6536L50.6167 39.9284L46.3719 40.9789Z" fill="black" stroke="black" stroke-width="0.644348" stroke-miterlimit="10" stroke-linecap="round"/>
<path d="M89.6982 44.5161L68.3674 48.4607L85.7107 42.7368L89.6982 44.5161Z" fill="black" stroke="black" stroke-width="0.644348" stroke-miterlimit="10" stroke-linecap="round"/>
<path d="M39.1045 7.8786C39.1045 7.8786 31.9014 13.2166 34.1309 16.1322C38.3542 21.6632 45.2787 15.1032 45.2787 15.1032" fill="#FCFCFC"/>
<path d="M39.1045 7.8786C39.1045 7.8786 31.9014 13.2166 34.1309 16.1322C38.3542 21.6632 45.2787 15.1032 45.2787 15.1032" stroke="black" stroke-width="0.859131" stroke-miterlimit="10"/>
<path d="M9.90607 10.9657C9.90607 10.9657 22.9403 22.0491 25.7916 17.247C30.3579 9.52938 19.6818 3.63394 19.6818 3.63394C19.6818 3.63394 8.3411 2.71211 9.90607 10.9657Z" fill="#FCFCFC" stroke="black" stroke-width="0.859131" stroke-miterlimit="10"/>
</svg>
