<svg width="294" height="47" viewBox="0 0 294 47" fill="none" xmlns="http://www.w3.org/2000/svg">
<path d="M44.3827 23.7467C44.3827 36.3643 34.5442 46.5934 22.4074 46.5934C10.2705 46.5934 0.432739 36.3674 0.432739 23.7467C0.432739 11.1261 10.2713 0.900879 22.4074 0.900879C34.5434 0.900879 44.3827 11.1292 44.3827 23.7467Z" fill="black"/>
<path d="M68.49 23.7462C68.49 35.6241 63.5704 45.2522 57.5023 45.2522C51.4343 45.2522 46.5146 35.621 46.5146 23.7462C46.5146 11.8714 51.4343 2.24023 57.5023 2.24023C63.5704 2.24023 68.49 11.8714 68.49 23.7462Z" fill="black"/>
<path d="M78.3503 23.7465C78.3503 34.3885 76.6199 43.015 74.4858 43.015C72.3516 43.015 70.6212 34.3854 70.6212 23.7465C70.6212 13.1075 72.3516 4.47803 74.4865 4.47803C76.6214 4.47803 78.3503 13.1052 78.3503 23.7465Z" fill="black"/>
<path d="M138.999 2.88156L139.06 2.86769V2.37843H126.562L114.958 30.5399L103.354 2.37843H89.8871V2.86769L89.9475 2.88156C92.2287 3.4132 93.3867 4.20603 93.3867 7.06533V40.5393C93.3867 43.3986 92.2242 44.1915 89.9431 44.7231L89.8826 44.737V45.2278H99.0198V44.7385L98.9593 44.7246C96.6782 44.193 95.5201 43.4002 95.5201 40.5409V9.00697L110.427 45.2278H111.272L126.613 7.99685V41.3676C126.418 43.6259 125.27 44.3232 123.205 44.8048L123.143 44.8194V45.3048H139.06V44.8194L138.999 44.8048C136.931 44.3232 135.756 43.6259 135.56 41.3676L135.55 7.06533H135.56C135.56 4.20603 136.718 3.4132 138.999 2.88156ZM146.269 25.0563C146.529 19.0419 148.621 14.7009 152.131 14.6262C153.214 14.6447 154.122 15.0114 154.828 15.7172C156.327 17.2204 157.033 20.3617 156.924 25.0563H146.269ZM146.111 26.7514H164.766V26.6705C164.713 22.0714 163.423 18.494 160.935 16.0377C158.785 13.915 155.601 12.7469 152.256 12.7469H152.182C150.446 12.7469 148.317 13.1815 146.802 13.9689C145.078 14.7934 143.557 16.0261 142.292 17.6442C140.254 20.2508 139.02 23.7734 138.72 27.7322C138.711 27.8509 138.702 27.9695 138.694 28.0882C138.686 28.2068 138.681 28.3132 138.675 28.4264C138.665 28.6383 138.657 28.851 138.652 29.0644C138.645 29.4065 138.643 29.7509 138.649 30.0976C138.851 39.0638 143.541 46.2294 151.873 46.2294C159.185 46.2294 163.444 40.7096 164.506 33.3006L163.969 33.1056C162.104 37.0875 158.753 39.5007 154.94 39.2064C149.735 38.8042 145.747 33.3545 146.109 26.7529L146.111 26.7514ZM185.858 38.902C185.246 40.4007 183.969 41.2251 182.258 41.2251C180.547 41.2251 178.983 40.0123 177.872 37.8087C176.678 35.4433 176.05 32.0994 176.05 28.1383C176.05 19.894 178.533 14.5614 182.377 14.5614C183.987 14.5614 185.254 15.3859 185.858 16.8244V38.902ZM198.233 44.7794C195.952 44.2223 194.794 43.3925 194.794 40.3875V0.406738L180.935 4.62287V5.1391L181.02 5.13216C182.931 4.97267 184.228 5.24543 184.981 5.96352C185.571 6.52598 185.858 7.38893 185.858 8.60323V14.0845C184.492 13.1838 182.867 12.7454 180.894 12.7454C176.895 12.7454 173.239 14.4844 170.603 17.6426C167.855 20.9342 166.402 25.4323 166.402 30.6493C166.401 39.9669 170.843 46.2294 177.454 46.2294C181.322 46.2294 184.434 44.0412 185.858 40.3506V45.3048H198.293V44.7917L198.233 44.7794ZM210.119 5.8441C210.119 2.93472 207.995 0.740361 205.176 0.740361C202.371 0.740361 200.177 2.98249 200.177 5.8441C200.177 8.7057 202.373 10.9478 205.176 10.9478C207.995 10.9478 210.119 8.75347 210.119 5.8441ZM213.39 44.7794C211.109 44.2223 209.951 43.3925 209.951 40.3875H209.941V12.8402L197.505 16.527V17.0278L197.58 17.0347C200.271 17.282 201.007 18.239 201.007 21.4858V45.3048H213.454V44.7917L213.39 44.7794ZM245.256 44.7794C242.975 44.2223 241.817 43.3925 241.817 40.3875V12.8402L229.977 16.4052V16.9076L230.047 16.9153C232.247 17.1541 232.882 18.1658 232.882 21.4273V38.8404C232.149 40.339 230.773 41.2289 229.106 41.289C226.402 41.289 224.914 39.4036 224.914 35.9803V12.8409L212.478 16.5277V17.0278L212.552 17.0347C215.243 17.2813 215.98 18.2382 215.98 21.4858V36.223C215.974 37.2518 216.061 38.279 216.239 39.2911L216.463 40.2966C217.516 44.1922 220.275 46.2294 224.597 46.2294C228.257 46.2294 231.466 43.8894 232.879 40.2281V45.3133H245.315V44.8002L245.256 44.7794ZM293.567 45.3048V44.7909L293.507 44.7763C291.032 44.1868 290.068 43.0758 290.068 40.8136V22.0753C290.068 16.2326 286.89 12.7454 281.566 12.7454C277.686 12.7454 274.414 15.0607 273.154 18.6674C272.154 14.8458 269.274 12.7454 265.016 12.7454C261.276 12.7454 258.345 14.7833 257.088 18.2259V12.8425L244.652 16.3783V16.8822L244.727 16.8891C247.385 17.1326 248.154 18.1173 248.154 21.2809V45.3048H259.757V44.7917L259.696 44.7763C257.722 44.297 257.084 43.4233 257.084 41.1812V19.7029C257.607 18.4432 258.66 16.9507 260.741 16.9507C263.326 16.9507 264.636 18.7999 264.636 22.4428V45.3048H276.242V44.7917L276.181 44.7763C274.207 44.297 273.569 43.4233 273.569 41.1812V22.073C273.574 21.3585 273.519 20.6449 273.405 19.9402C273.959 18.5711 275.072 16.9507 277.238 16.9507C279.86 16.9507 281.133 18.7468 281.133 22.4428V45.3048H293.567Z" fill="black"/>
</svg>
