<svg width="40" height="32" viewBox="0 0 40 32" fill="none" xmlns="http://www.w3.org/2000/svg">
<g opacity="0.6">
<path d="M3.53629 13.7383L3.49527 13.7816L3.4598 13.7336L1.4598 11.0297L1.43484 10.9959L1.46376 10.9655L10.9638 0.969536L11.0054 0.925748L11.0406 0.974813L13.1214 3.87196L13.1459 3.90614L13.1164 3.93617L11.9241 5.14995L14.2814 5.10034L14.2923 5.10011L14.3023 5.10445L18.5199 6.93083L18.5336 6.93677L18.5418 6.94927L18.5 6.97671L18.5418 6.94931L18.5419 6.94939L18.542 6.94965L18.5427 6.95058L18.5449 6.9541L18.5536 6.96769C18.5611 6.97962 18.572 6.99725 18.5858 7.02034C18.6136 7.06651 18.653 7.1345 18.7003 7.22225C18.7948 7.39775 18.9207 7.65242 19.0465 7.9699C19.2657 8.52296 19.4852 9.26774 19.538 10.1172C19.8086 9.11382 20.2569 8.63471 20.657 8.32746C20.7632 8.24591 20.8657 8.17671 20.959 8.11372L20.971 8.10559C21.0681 8.04001 21.1538 7.98161 21.2258 7.92152C21.3676 7.803 21.45 7.68297 21.45 7.49993V7.47816L21.4659 7.46333C22.5707 6.43504 23.3245 5.93188 23.8042 5.68569C24.0441 5.56255 24.216 5.50347 24.3293 5.47525C24.386 5.46114 24.428 5.45474 24.4566 5.45191C24.4709 5.4505 24.4819 5.44998 24.4896 5.44984L24.4932 5.44985L25.6751 5.10978L26.0276 3.95515L26.0313 3.94319L26.0401 3.93435L29.0142 0.968502L29.0496 0.933164L29.0849 0.968632L39.0354 10.9647L39.0693 10.9986L39.0367 11.0339L36.5367 13.7378L36.5073 13.7696L36.4716 13.7451L34.1341 12.1357L34.0499 14.0022L34.0491 14.0216L34.0354 14.0353C33.6732 14.3974 33.3573 14.7927 33.0037 15.2352C32.8713 15.4008 32.7337 15.573 32.5863 15.7526C32.0555 16.3996 31.4032 17.1364 30.4283 17.9889L32.0271 19.0192L32.0632 19.0425L32.0456 19.0817L31.5456 20.1975L31.5461 20.1977L31.5422 20.2038L30.3882 22.0257C30.3118 22.1605 30.2491 22.3408 30.1885 22.5414C30.166 22.6158 30.1437 22.6933 30.121 22.7718C30.0833 22.9029 30.0447 23.037 30.0029 23.1646C29.9359 23.3693 29.8585 23.5646 29.7576 23.7176C29.6704 23.8499 29.563 23.9545 29.426 24.0038C29.6446 24.3778 29.5341 24.7657 29.3243 25.1431C29.2137 25.342 29.0734 25.542 28.934 25.74L28.9255 25.7522C28.7883 25.9469 28.6526 26.1397 28.5434 26.3312L28.5432 26.3316C28.4432 26.5039 28.3822 26.6683 28.3339 26.8195C28.3198 26.8636 28.3066 26.9072 28.2938 26.9498C28.2632 27.051 28.2343 27.1465 28.199 27.2297C28.1477 27.3504 28.0797 27.4539 27.9646 27.5258C27.8512 27.5966 27.6981 27.633 27.484 27.6334L27.3648 27.6527C27.3587 27.7077 27.3335 27.7559 27.2954 27.7971C27.248 27.8483 27.1804 27.8894 27.1029 27.9241C26.9482 27.9934 26.7378 28.044 26.5246 28.092C26.4976 28.0981 26.4706 28.1041 26.4437 28.1102C26.2546 28.1524 26.0665 28.1945 25.9076 28.2474C25.817 28.2776 25.738 28.3107 25.675 28.3482C25.6118 28.3859 25.568 28.4261 25.5434 28.4691L25.544 28.4694L25.5389 28.4758L24.0389 30.3304L24.0321 30.3388L24.0224 30.3436C23.6026 30.554 23.2126 30.5004 22.9296 30.3951C22.7883 30.3426 22.6732 30.2771 22.5933 30.2247C22.5534 30.1984 22.5221 30.1754 22.5007 30.1588C22.49 30.1505 22.4817 30.1438 22.476 30.1391L22.4715 30.1353L20.5062 29.0603L19.2469 30.1306L18.871 30.508C18.5071 30.8734 18.0233 31.0682 17.4955 31.0682H17.494C17.4392 31.0682 17.3843 31.0682 17.3251 31.0598C17.0414 31.0388 16.8581 30.9619 16.6929 30.8351C16.6113 30.7724 16.5349 30.6982 16.4539 30.6148C16.4237 30.5837 16.3931 30.5515 16.3612 30.5181C16.3067 30.4608 16.2487 30.3999 16.1833 30.3342C16.0799 30.2304 16.0091 30.088 15.9591 29.9296C15.9089 29.7708 15.8786 29.5923 15.8582 29.4129C15.8385 29.2398 15.8279 29.0641 15.8182 28.9029L15.8172 28.8852C15.8087 28.7445 15.8007 28.6163 15.7878 28.5094C15.7239 28.5255 15.6447 28.5362 15.5588 28.5435C15.4423 28.5534 15.3088 28.5574 15.1753 28.5583C15.0417 28.5592 14.9074 28.5571 14.7893 28.5548C14.762 28.5543 14.7356 28.5538 14.7102 28.5532C14.6257 28.5515 14.5533 28.55 14.5 28.55C13.8962 28.55 13.4055 28.478 12.9646 28.0353C12.8584 27.9286 12.7993 27.8434 12.7769 27.7639C12.7535 27.6811 12.772 27.6122 12.8008 27.5458C12.8112 27.5217 12.823 27.4976 12.8354 27.4724C12.8895 27.362 12.9535 27.2316 12.95 27.0008L12.9498 26.9886L12.9553 26.9776C13.2002 26.4878 13.183 26.1278 13.0887 25.8937C13.0412 25.7759 12.9738 25.6887 12.9083 25.6314C12.8408 25.5723 12.7813 25.55 12.7508 25.55C12.6071 25.55 12.4529 25.5749 12.2935 25.607C12.2401 25.6177 12.1858 25.6294 12.1312 25.6411C12.025 25.6638 11.9178 25.6868 11.8141 25.7039C11.501 25.7556 11.1887 25.7604 10.9646 25.5353C10.9141 25.4846 10.8685 25.4404 10.8271 25.4003C10.7858 25.3605 10.7484 25.3245 10.715 25.291C10.6483 25.224 10.595 25.1644 10.5546 25.0969C10.4729 24.9599 10.45 24.7996 10.45 24.5C10.45 24.0115 10.3016 23.6851 10.1619 23.4508C10.1268 23.3919 10.0921 23.3388 10.0601 23.2898C10.0283 23.2412 9.99856 23.1958 9.97445 23.1541C9.93993 23.0943 9.91129 23.0331 9.90961 22.9721C9.87026 22.9705 9.82895 22.9689 9.78598 22.9672C9.53047 22.9575 9.21691 22.9455 8.91659 22.903C8.54448 22.8503 8.17776 22.7493 7.96457 22.5352C7.7091 22.2797 7.47542 21.9087 7.41838 21.4865C7.36098 21.0616 7.48338 20.5906 7.9304 20.1417L8.7486 19.3202L8.45751 18.5293C7.39045 17.5998 6.79075 16.4267 6.45971 15.4713C6.29363 14.992 6.19493 14.5668 6.13874 14.2536C6.11064 14.0969 6.09314 13.9681 6.08315 13.8743C6.07816 13.8274 6.07502 13.7891 6.07339 13.7602C6.07261 13.7464 6.0721 13.7336 6.07201 13.7227L4.82839 12.3747L3.53629 13.7383Z" stroke="white" stroke-width="0.1" stroke-linecap="round"/>
<path d="M1.64051 10.5115C1.28555 10.8815 1.29425 11.4682 1.66003 11.8275L3.10123 13.2432C3.47265 13.6081 4.0704 13.5998 4.43159 13.2248L12.9574 4.37336C13.3184 3.99854 13.3045 3.40125 12.9264 3.04367L11.4408 1.63869C11.067 1.28522 10.478 1.29954 10.1219 1.67077L1.64051 10.5115Z" stroke="white" stroke-width="2"/>
<path d="M8.5 18.3797C6 16.89 5.48489 12.5334 5.5 12.4209" stroke="white" stroke-width="2" stroke-linecap="round"/>
<path d="M19.5 7.9518C17 5.45879 15.2974 4.97247 13 4.97241" stroke="white" stroke-width="2" stroke-linecap="round"/>
<path d="M26.5148 3.07478C26.1386 3.44584 26.1438 4.0545 26.5264 4.41903L35.5769 13.0442C35.9452 13.3952 36.5264 13.3878 36.8857 13.0276L38.3241 11.5854C38.695 11.2135 38.6875 10.6095 38.3076 10.2469L29.2753 1.62712C28.9092 1.27775 28.3317 1.28252 27.9715 1.63789L26.5148 3.07478Z" stroke="white" stroke-width="2"/>
<path d="M31 17.3865C33.5 15.4003 34.0038 11.9468 34 11.9243" stroke="white" stroke-width="2" stroke-linecap="round"/>
<path d="M29.5629 21.4905C29.7597 21.5218 29.9481 21.53 30.1281 21.5153C30.7999 21.4601 31.3387 21.0905 31.6138 20.468C31.9598 19.6871 31.7771 18.7361 31.1663 18.1626C30.2148 17.2679 27.4907 14.868 27.3754 14.7656" stroke="white" stroke-width="2" stroke-linecap="round"/>
<path d="M28.3771 24.6485C29.0515 24.5931 29.5899 24.2232 29.8684 23.6066C30.214 22.8251 30.0316 21.8765 29.4209 21.2989C28.47 20.4033 25.7446 18.0009 25.6293 17.8984" stroke="white" stroke-width="2" stroke-linecap="round"/>
<path d="M26.0708 27.7561C26.2675 27.7874 26.4559 27.7957 26.6359 27.7809C27.311 27.7255 27.8498 27.3559 28.1216 26.7336C28.4676 25.9527 28.2852 25.0051 27.6744 24.4316C26.7226 23.5335 23.9986 21.1336 23.8832 21.0312" stroke="white" stroke-width="2" stroke-linecap="round"/>
<path d="M20.5 28.311L22.5 29.8007C22.5491 29.8279 22.9104 29.9964 22.9688 30.0055C23.1839 30.0329 23.3936 30.04 23.5942 30.0235C24.3464 29.9618 24.9492 29.5795 25.2644 28.9471C25.6593 28.1452 25.1798 27.4068 24.5 26.8213C24.3176 26.6665 23.7752 26.0587 23.5 25.8282" stroke="white" stroke-width="2" stroke-linecap="round"/>
<rect width="7.07597" height="3.24644" rx="1.62322" transform="matrix(0.703954 -0.710245 0.715082 0.69904 7.07545 20.8093)" stroke="white" stroke-width="2"/>
<rect width="7.97713" height="3.24644" rx="1.62322" transform="matrix(0.703954 -0.710245 0.715082 0.69904 9.70525 24.075)" stroke="white" stroke-width="2"/>
<rect width="8.02632" height="3.24644" rx="1.62322" transform="matrix(0.703954 -0.710245 0.715082 0.69904 12.335 26.6865)" stroke="white" stroke-width="2"/>
<rect width="5.63932" height="3.24644" rx="1.62322" transform="matrix(0.703954 -0.710245 0.715082 0.69904 15.5276 28.7307)" stroke="white" stroke-width="2"/>
<path d="M26.929 5.97011C27.4799 6.0093 27.9583 5.59448 27.9975 5.04359C28.0367 4.49269 27.6219 4.01434 27.071 3.97515L26.929 5.97011ZM22.5275 6.70695L23.2046 7.44287L23.2048 7.44265L22.5275 6.70695ZM17.2639 11.9277L17.9802 12.6255L17.2639 11.9277ZM17.4042 13.443L16.8538 14.2779H16.8538L17.4042 13.443ZM21.1285 13.4252L20.4229 12.7166V12.7166L21.1285 13.4252ZM22.8975 11.4121L23.6686 10.7754C23.4578 10.52 23.1342 10.3856 22.8044 10.4164C22.4747 10.4472 22.1816 10.6393 22.0217 10.9293L22.8975 11.4121ZM24.4647 12.2109L24.5172 11.2123L24.5161 11.2123L24.4647 12.2109ZM27.4504 11.8103C27.8423 11.4211 27.8444 10.788 27.4553 10.3961C27.0661 10.0043 26.4329 10.0021 26.0411 10.3912L27.4504 11.8103ZM27 4.97263C27.071 3.97515 27.0705 3.97512 27.0701 3.97509C27.0699 3.97508 27.0695 3.97505 27.0692 3.97503C27.0686 3.97498 27.0679 3.97494 27.0672 3.97489C27.0658 3.97479 27.0642 3.97469 27.0625 3.97458C27.0591 3.97436 27.0551 3.97411 27.0505 3.97385C27.0413 3.97332 27.0297 3.97272 27.0159 3.97212C26.9883 3.97092 26.9515 3.96972 26.9064 3.9691C26.8161 3.96787 26.6917 3.96896 26.5389 3.97711C26.2339 3.99338 25.8116 4.03799 25.3181 4.15021C24.331 4.37465 23.042 4.87405 21.8502 5.97125L23.2048 7.44265C24.0826 6.63459 25.0298 6.26683 25.7616 6.10043C26.1275 6.01722 26.4353 5.98549 26.6455 5.97427C26.7503 5.96868 26.8298 5.96824 26.879 5.96891C26.9036 5.96925 26.9205 5.96986 26.9291 5.97023C26.9334 5.97042 26.9356 5.97054 26.9356 5.97055C26.9356 5.97055 26.9351 5.97052 26.934 5.97045C26.9334 5.97041 26.9328 5.97037 26.9319 5.97031C26.9315 5.97028 26.9311 5.97025 26.9306 5.97022C26.9304 5.9702 26.93 5.97017 26.9298 5.97017C26.9294 5.97014 26.929 5.97011 27 4.97263ZM21.8505 5.97102C20.3288 7.37096 17.9617 9.77866 16.5477 11.2298L17.9802 12.6255C19.4018 11.1665 21.7303 8.79925 23.2046 7.44287L21.8505 5.97102ZM16.8538 14.2779C17.3836 14.6271 18.1442 15.0521 19.0218 15.1583C19.9641 15.2723 20.9567 15.0074 21.8341 14.1339L20.4229 12.7166C19.9894 13.1482 19.6094 13.2148 19.262 13.1728C18.85 13.1229 18.4037 12.9042 17.9545 12.608L16.8538 14.2779ZM21.8341 14.1339C22.5844 13.3867 23.052 12.8566 23.339 12.5013C23.4827 12.3233 23.5824 12.1877 23.6503 12.0891C23.6843 12.0397 23.7105 11.9993 23.7304 11.9673C23.7404 11.9512 23.7489 11.9372 23.7559 11.9252C23.7595 11.9192 23.7627 11.9137 23.7655 11.9086C23.767 11.9061 23.7684 11.9036 23.7696 11.9014C23.7703 11.9002 23.7709 11.8991 23.7715 11.898C23.7718 11.8974 23.7721 11.8969 23.7724 11.8964C23.7726 11.8961 23.7728 11.8957 23.7728 11.8956C23.7731 11.8952 23.7733 11.8948 22.8975 11.4121C22.0217 10.9293 22.0219 10.929 22.0222 10.9286C22.0222 10.9285 22.0224 10.9281 22.0226 10.9278C22.0229 10.9273 22.0231 10.9268 22.0234 10.9264C22.0239 10.9254 22.0244 10.9245 22.0249 10.9236C22.0259 10.9219 22.0268 10.9203 22.0276 10.9188C22.0292 10.916 22.0305 10.9138 22.0315 10.9122C22.0333 10.909 22.0337 10.9084 22.0324 10.9105C22.0299 10.9147 22.0206 10.9292 22.003 10.9549C21.9675 11.0064 21.8989 11.1012 21.7831 11.2446C21.5509 11.5321 21.134 12.0085 20.4229 12.7166L21.8341 14.1339ZM22.8975 11.4121C22.1264 12.0488 22.1266 12.049 22.1268 12.0493C22.1269 12.0494 22.1272 12.0497 22.1273 12.0499C22.1276 12.0503 22.128 12.0507 22.1283 12.0511C22.129 12.0519 22.1297 12.0528 22.1305 12.0537C22.132 12.0555 22.1337 12.0575 22.1356 12.0597C22.1393 12.0641 22.1437 12.0693 22.1487 12.0751C22.1588 12.0868 22.1716 12.1013 22.187 12.1181C22.2177 12.1518 22.2592 12.1955 22.3108 12.2459C22.4134 12.346 22.5604 12.4766 22.7476 12.6092C23.1148 12.8693 23.6873 13.1723 24.4134 13.2096L24.5161 11.2123C24.2942 11.2008 24.0832 11.1043 23.9037 10.9772C23.8176 10.9162 23.7505 10.8563 23.7074 10.8142C23.6861 10.7935 23.6718 10.7782 23.6649 10.7707C23.6615 10.7669 23.6601 10.7652 23.6607 10.7659C23.6609 10.7662 23.6617 10.7672 23.6631 10.7687C23.6637 10.7695 23.6645 10.7705 23.6654 10.7716C23.6659 10.7721 23.6664 10.7727 23.6669 10.7733C23.6672 10.7737 23.6675 10.774 23.6678 10.7743C23.6679 10.7745 23.6681 10.7748 23.6682 10.7749C23.6684 10.7751 23.6686 10.7754 22.8975 11.4121ZM24.4123 13.2096C25.52 13.2678 26.5651 12.6896 27.4504 11.8103L26.0411 10.3912C25.3629 11.0647 24.8369 11.2291 24.5172 11.2123L24.4123 13.2096ZM16.5477 11.2298C15.7211 12.0782 15.7923 13.5782 16.8538 14.2779L17.9545 12.608C17.9615 12.6127 17.9682 12.6184 17.9737 12.6244C17.9792 12.6303 17.9826 12.6355 17.9844 12.6388C17.9878 12.6449 17.9859 12.644 17.9851 12.6357C17.9848 12.632 17.9849 12.6281 17.9853 12.6244C17.9857 12.6207 17.9864 12.6181 17.9869 12.6168C17.9876 12.6146 17.9864 12.6191 17.9802 12.6255L16.5477 11.2298Z" fill="white"/>
</g>
</svg>
