<svg width="64" height="63" viewBox="0 0 64 63" fill="none" xmlns="http://www.w3.org/2000/svg">
<path d="M32 63C49.6731 63 64 48.897 64 31.5C64 14.103 49.6731 0 32 0C14.3269 0 0 14.103 0 31.5C0 48.897 14.3269 63 32 63Z" fill="url(#paint0_linear)"/>
<path fill-rule="evenodd" clip-rule="evenodd" d="M14.485 31.1674C23.8136 27.1665 30.0342 24.5289 33.1467 23.2546C42.0334 19.616 43.88 18.984 45.0836 18.9631C45.3483 18.9585 45.9402 19.0231 46.3236 19.3293C46.6473 19.5879 46.7364 19.9372 46.779 20.1824C46.8217 20.4276 46.8747 20.9861 46.8325 21.4225C46.351 26.4034 44.2672 38.4907 43.2071 44.0694C42.7585 46.4299 41.8753 47.2214 41.0202 47.2989C39.1619 47.4672 37.7508 46.0899 35.9509 44.9286C33.1345 43.1112 31.5434 41.9799 28.8096 40.2065C25.6502 38.157 27.6983 37.0306 29.4988 35.1897C29.97 34.7079 38.1577 27.377 38.3162 26.7119C38.336 26.6287 38.3544 26.3187 38.1673 26.155C37.9802 25.9913 37.7041 26.0473 37.5048 26.0918C37.2223 26.1549 32.723 29.0823 24.007 34.8739C22.7299 35.7372 21.5731 36.1578 20.5367 36.1358C19.3942 36.1115 17.1963 35.4998 15.5624 34.977C13.5584 34.3358 11.9657 33.9967 12.1044 32.9077C12.1766 32.3405 12.9702 31.7604 14.485 31.1674Z" fill="white"/>
<defs>
<linearGradient id="paint0_linear" x1="32" y1="0" x2="32" y2="62.5328" gradientUnits="userSpaceOnUse">
<stop stop-color="#2AABEE"/>
<stop offset="1" stop-color="#229ED9"/>
</linearGradient>
</defs>
</svg>
