<svg width="63" height="63" viewBox="0 0 63 63" fill="none" xmlns="http://www.w3.org/2000/svg">
<path d="M55.125 63H7.875C3.528 63 0 59.472 0 55.125V7.875C0 3.528 3.528 0 7.875 0H55.125C59.472 0 63 3.528 63 7.875V55.125C63 59.472 59.472 63 55.125 63Z" fill="#1D9BF0"/>
<path d="M24.192 47.502C39.0442 47.502 47.1712 35.1855 47.1712 24.5228C47.1712 24.1763 47.1712 23.8298 47.1555 23.4833C48.7305 22.3493 50.1007 20.916 51.1875 19.2938C49.7385 19.9395 48.1792 20.3648 46.5412 20.5695C48.2107 19.5773 49.4865 17.9865 50.1007 16.0965C48.5415 17.0258 46.809 17.6873 44.9662 18.0495C43.4857 16.4745 41.391 15.498 39.0757 15.498C34.6185 15.498 30.996 19.1205 30.996 23.5778C30.996 24.2078 31.0747 24.822 31.2007 25.4205C24.4912 25.0898 18.5377 21.861 14.553 16.9785C13.86 18.1755 13.4662 19.5615 13.4662 21.042C13.4662 23.8455 14.8995 26.3183 17.0572 27.7673C15.7342 27.72 14.49 27.3578 13.4032 26.7593C13.4032 26.7908 13.4032 26.8223 13.4032 26.8695C13.4032 30.7755 16.191 34.0515 19.8765 34.7918C19.1992 34.9808 18.4905 35.0753 17.7502 35.0753C17.2305 35.0753 16.7265 35.028 16.2382 34.9335C17.262 38.1465 20.2545 40.4775 23.7825 40.5405C21.0105 42.714 17.5297 44.0055 13.7497 44.0055C13.104 44.0055 12.4582 43.974 11.8282 43.8953C15.3877 46.1633 19.6402 47.502 24.192 47.502Z" fill="white"/>
</svg>
